<svg id="Layer_1" data-name="Layer 1" xmlns="http://www.w3.org/2000/svg" viewBox="0 0 777 272"><defs><style>.cls-1{fill:#fff;}</style></defs><title>Artboard 2</title><path class="cls-1" d="M735.77,90.21c12.95-13.59,25.29-8.41,33-22,0,0-13.29,4.21-22,4.85s-15.53,12-22.33,15.21-35.6-12-49.84,7.44c0,0-1.29-15.86,19.74-15.86s26.86-2.27,35-9.71a27.19,27.19,0,0,1,18.45-6.8s-8.09-7.79-25.24,4.21-36.57-.32-46,6.8-11,10.36-11,10.36,4.85-19.42,23-18.45,24.27,1.94,32.69-3.88,12-4.53,12-4.53-3.24-3.88-15.86-.32-21.24,3.56-30.48-.38c-6.92-3-23.56,4.92-29.39,17.86,0,0-6.47-14.24,16.83-23.62,0,0-25.89-5.18-29.77,31.72,0,0-6.8-4.38,5.83-32,0,0-15.21,12.22-20.06,36.82,0,0-6.15,1.94-4.53-6.15,0,0-4.21,9.71-6.47,9.06S612.14,86,612.14,86s-1.62,24.27-6.8,20.71-1.94-12.95-1.94-12.95-8.09,12.62-10.36,7.44,0-11.33,0-11.33-12,12.95-17.48.32c0,0-12.95,12.95-15.53,0,0,0-7.44,15.21-10,4.21,0,0-8.09,20.06-13.92,12-3.23-4.49-4.17-7.08-4.37-8.5-.71,6.34-3.9,29.79-11.49,20.8,0,0,10,19.74-3.24,20.07,0,0,13.92,12.81,3.56,20.65,0,0,18.45,18.19,2.91,15.28,0,0,14.89,12,2.27,14.24,0,0,1,10.68-8.41,4.53,0,0-18.45,18.12-4.21-7.77,0,0-21,4.85-9.39-5.83S516,166.91,516,166.91s-26.54,6.8-9.71-9.39c0,0-12.59-6.33,1.94-13.92,0,0-20.06-3.43-3.24-12.3,0,0-20.39-11.65-1.62-12.95,0,0-22-7.12-12.62-13.92,0,0-21.68-.32-4.21-9.71,0,0-24,1.54-13.63-10.11,0,0-35.24.08-10.32-9.63,0,0-10.77.72-16.27,2s-15.19.9-7.23-7.84c0,0-26,3.24-9.51-13.59,0,0-25.57,19.09-27.18,12s3.88-12.62,3.88-12.62S382,75.65,383,63.67a31,31,0,0,1,6.46-16.58c-5.46,6.07-19,23-20.1,18.75-1.29-5.18,0-11.55,0-11.55s-9.39,14.56-12,10,1-15.86,1-15.86-11.33,13.59-14.89,21.68-10,4.85-10.36-5.83c0,0-5.5,18.77-8.41,15.21s-1-18.45-1-18.45a33.31,33.31,0,0,0-8.41,19.42c-1,12-3.88,12.62-9.39,2.91,0,0-.65,14.56-6.15,13.59s-4.53-19.09-4.53-19.09a41,41,0,0,0-6.15,17.48c-1.29,10.68-7.12,15.86-11.65,7.12,0,0,3.56,18.12-5.18,15.53s-8.74-11.65-8.74-11.65a85,85,0,0,0,2.27,20.39c2.1,8.65-6.19,6.21-9.17,2.33C265,145.47,255.34,144,255.34,144c2.43,15.43-6.47,14.62-6.47,14.62,1.46,12-8.25,14.24-8.25,14.24.16,13.08-6.47,9.55-6.47,9.55-.81,14.4-8.25,12.1-8.25,12.1-4.69,14.29-13.75,10.92-13.75,10.92s-8.87,13-12.38,4.25c-2.76-6.87,14.18-8.89,14.18-8.89s-6.33-.81-4.55-6.27c2.15-6.59,19.19-7.25,19.19-7.25-9.9-10.19,14-19.35,14-19.35-8.74-7.59,6.34-12.66,6.34-12.66s-4.75.68-5.53-3.76,8.82-9.09,8.82-9.09-4.13,1.16-5.69-1.06,7.07-8,7.07-8-10.66-1-4.14-9.49c-6.64,3.08-15.46,6.32-13-.37,3.56-9.71,19.09-14.89,19.09-14.89s-6-3.12-15.21-.86c7.38-2.14,33.43-10.62,32-23.41-1.62-14.89-18.77,7.44-35.6,12,0,0-.65-6.15,8.09-12a26.48,26.48,0,0,0,12-21.68s-6.47,15.21-14.56,16.83-13.27,7-19.42,16.83c-3.24,5.18-7.77-5.18-1.62-8.41s12.3-12.3,13.27-23.62,5.18-15.21,5.18-15.21S231.88,55.26,229,64.64s-13.59,13.27-16.83,23c-1.81,5.43-9.71-2.27-4.21-8.74s14.56-10.68,9.71-29.45c0,0-1,9.71-6.15,14.89S197.9,74.76,196.28,82.77c-1.2,5.93-7.44.65-4.21-8.74S207.28,63.72,205,46.54c0,0-3.24,7.1-9.39,10.66s-13.53,13.54-13.86,22c0,0-6,7.5-12.56,2s-17-19.74-25.69-18.77-1.29,3.88-1.29,3.88a35.56,35.56,0,0,0-7.06.92,11,11,0,0,0-15.59-.56,23.68,23.68,0,0,0-7.78,1.58,19.93,19.93,0,0,0-6.68-7.12,17,17,0,0,1-.37-2.45,10.74,10.74,0,0,1,.84-5.3,9.39,9.39,0,0,1,5.1-4.57,20.91,20.91,0,0,1,2.15-.78c.85-.26,1.73-.52,2.7-.85,1.86-.62,3.72-1.32,5.62-2.11a83.21,83.21,0,0,0,11.51-5.84,54.65,54.65,0,0,0,5.65-4A31.13,31.13,0,0,0,143.5,30a17.43,17.43,0,0,0,2-3.37,13.71,13.71,0,0,0,.7-1.95,11.26,11.26,0,0,0,.32-2.13,10.79,10.79,0,0,0-.1-2.18,10.86,10.86,0,0,0-.61-2.08,12.55,12.55,0,0,0-2.18-3.48l-1.27-1.29a3.56,3.56,0,0,1-.47-.52s-.07-.08-.1-.13a.79.79,0,0,0-.08-.15.55.55,0,0,1-.07-.35,2.18,2.18,0,0,1,.51-.7,9.61,9.61,0,0,1,2.45-1.5,24.53,24.53,0,0,1,3-1.11,63.37,63.37,0,0,1,12.81-2.26,80.42,80.42,0,0,1,12.29-.1,42.22,42.22,0,0,1,10.76,2A14.62,14.62,0,0,1,187.71,11a6.08,6.08,0,0,1,2.3,3.41,6.73,6.73,0,0,1-.42,3.68A13.76,13.76,0,0,1,188,20.93a28.25,28.25,0,0,1-3,3.56l-1.18,1.16,1.25-1.1a28.45,28.45,0,0,0,3.22-3.42,14.18,14.18,0,0,0,1.77-2.89,7.33,7.33,0,0,0,.65-4,6.91,6.91,0,0,0-2.38-4,15.67,15.67,0,0,0-4.39-2.62,43.66,43.66,0,0,0-11-2.67,82.53,82.53,0,0,0-12.61-.56A66,66,0,0,0,146.78,6a27.75,27.75,0,0,0-3.46,1.08,12.82,12.82,0,0,0-3.47,1.94,5.67,5.67,0,0,0-1.55,2,4.2,4.2,0,0,0,0,3,6.42,6.42,0,0,0,1.31,2l1.09,1.23A8.56,8.56,0,0,1,142,19.78a6.81,6.81,0,0,1,.3,1.24,6.64,6.64,0,0,1,0,1.25,9.56,9.56,0,0,1-2.42,4.9A36,36,0,0,1,130,34.61a77.65,77.65,0,0,1-11,4.86c-1.8.63-3.59,1.2-5.29,1.67-.82.23-1.7.45-2.59.67a27.75,27.75,0,0,0-2.88.88,18.39,18.39,0,0,0-5.26,3,14.83,14.83,0,0,0-3.67,4.45,17.85,17.85,0,0,0-2,8.81c0,.2,0,.38,0,.57-7.5-.21-10.15-8.1-10.15-8.1s2.27,12.3-7.44,10c-8.12-1.9-9-4-9.06-4.66-.33,1.21.11,7.92,4.53,11.46,4.85,3.88,1.94,6.15,1,12s3.22,11-5.51,15.53c0,0,3.57,5.5,16.84,3.24,0,0-.83,6.9-3,8.46a21.73,21.73,0,0,1-3.95.26,17.94,17.94,0,0,1-8-2.07,20.27,20.27,0,0,1-3.7-2.51c-.3-.24-.58-.51-.87-.77s-.61-.56-1-.89a27,27,0,0,0-2.22-1.73,35.48,35.48,0,0,0-9.93-4.78A38.54,38.54,0,0,0,44.19,93.2a21.6,21.6,0,0,0-10.44,2.15,8.72,8.72,0,0,0-3.8,3.84,8,8,0,0,0-.5,5.1,12.9,12.9,0,0,0,.7,2.26,9.79,9.79,0,0,0,1.11,2,10,10,0,0,0,3.22,2.9,13.08,13.08,0,0,0,7.15,1.6,8.41,8.41,0,0,0,5.26-1.86,2.53,2.53,0,0,0,.84-1.9,3,3,0,0,0-.49-1.45,5.12,5.12,0,0,0-.57-.74l-.22-.23.21.25a5.07,5.07,0,0,1,.52.77,2.84,2.84,0,0,1,.38,1.41,2.29,2.29,0,0,1-.87,1.67,8,8,0,0,1-5.06,1.42,12.2,12.2,0,0,1-6.54-1.89,8.71,8.71,0,0,1-2.65-2.7A10.21,10.21,0,0,1,31.1,104a6.16,6.16,0,0,1,.6-3.92,6.61,6.61,0,0,1,3.09-2.7,19.15,19.15,0,0,1,9.27-1.25,35.3,35.3,0,0,1,9.69,2.21,31.56,31.56,0,0,1,8.53,4.78A22.89,22.89,0,0,1,64,104.67c.25.24.6.61.85.87s.64.66,1,1a25,25,0,0,0,4.37,3.33,23.09,23.09,0,0,0,10,3.2,29.23,29.23,0,0,0,9.3-.8,40.73,40.73,0,0,0,7.29-2.55l.09,0a16.06,16.06,0,0,0,7.1-2s3.88,4.21,2.59,7.12c0,0,11.65-6.15,13.59-3.24s2.59,4.85-8.41,7.12-18.77,6.8-22.65,2.59-6.8-6.15-9.39-4.21,2.17,16.49,13.92,15.86c11.17-.6-.16,5.34-12.95,0,0,0-2.36,0-4-4.81a12.38,12.38,0,0,0,2,8.69,15.82,15.82,0,0,1,0,9.39c-1.62,4.85-.65,9.39,1,13.59s3.88,10.36,11.65,13.59,9.39,18.77,26.21,12.95,16.5,1.29,16.5,1.29a55.57,55.57,0,0,0-6.83,17c-2.74-1.93-6.77-4-9.35-1.82-4.21,3.56-5.29,5.5-9.76,4.21s-11.92,2.7-14.19-2.37S84,196,79.45,190.86s-32-23.16-26.54-33.75,24.42-10.26,17.71-27.74c0,0-3.15-9.06-12.53-10.36a30.16,30.16,0,0,1,3.25,8.28c1,4.53-10.35,17.6-12,25.7-2.06,10.23,3.08,10.76-.08,10.23s-3.64-9.91,0-20.91,9.7-22.33-2.55-22c0,0-5.78-1.29-5.14.65s2.59,1,2.59,4.85-5,12.62-2.64,20.39,3.93,11.86,1.67,13-7.77-13.37-6.8-21.14.32-16.83-4.53-17.15-7.12,4.85-7.12,4.85,3.56.65,3.56,3.56-1,12,3.56,19.42,9.39,15,6.47,14.44S22.17,152.67,21.52,143s-8.44-19.72-15.21-14.24c-3.6,2.91-.53,13.07,3.24,15.86,7.59,5.6,16.51,14.56,15.53,21.68S19.25,180.83,20.22,187s1.29,8.74,7.44,9.39c0,0,5.5,5.5,10.36,1.29s-7.12-16.83-1.94-21.36,11.65,4.21,18.45,14.89,25.89,23.95,29.13,30.74,17.15,9.39,27.18,6.8c8.78-2.27,17.07,12.08,28.12,17,19.15,21.23,33.7,16,33.7,16s33.66,16.18,71.2-4.85c0,0,9.87-4,23.05-20.5,22.1,1.34,28.4-11.54,28.4-11.54l11-2.91c11-2.91,32,1.62,30.54,10.36s-10.15,7.44-13.71,12S329,257.2,329,257.2c-1-3.24,1.29-7.12,1.29-7.12,4.53,0,6.59-4.85,6.59-4.85,5,0,9.59-5.83,9.59-5.83-.65,7.77-13.92,12.3-6.8,18.45s13.92,2.27,13.92,2.27c-2.91-2.59-1.62-9.06,1-15.53a24.62,24.62,0,0,0,1.94-11.33c6.15,3.88,4.53,10.68,5.18,17.48s10.68,6.47,12,3.24,9.06-2.59,8.41-5.18-10.36-2.59-10.36-2.59c.65-9.71-6.15-18.45-6.15-18.45s12.95,6.15,18.45,6.15,5.83-18.45,5.18-21.36-2.59.65-8.41,6.15-12-1.29-15.86-3.24-5.83-2.59-21.68-2.91-15.21-1.62-33-10.36c-9-4.42-15.52-5.28-19.77-5,21.64-41.33,49.67-60.32,81.26-67.45,32.76-7.39,63.59,9.25,66.27,29.37-6.92-.57-23.72.35-26.79,22.09,0,0-18.12-1.62-19.74-6.15s10-8.41,16.83-9.39,11.33-7.44,5.18-12.95-10.36-2.59-9.71,0-5.18,5.18-9.71,10-8.74,8.88-9.06,5.73,9.39-16.19,13.92-18.89,3.24-12.08-3.56-10.79c0,0-4.55-2.27-8.42-1.62,0,0,4.53,2.59,3.56,7.12s-10.68,14.56-9.7,19.09-1.6,7.44-3.71,7.12-2.09-20.06,0-25.89-2.11-13.12-10.85-8.5l-3.88,2.35a7.1,7.1,0,0,1,4.21,2.91c1.29,2.27,1.29,16.83,3.88,22.65s4.21,6.8,1.94,7.44S363.72,159.61,362,154c-2-6.5-9.64-15.36-16.76-4,0,0-4-.17-3.3,5.33,0,0,7.12-3.24,9.71.32S367.8,168.2,367.48,174s-3.88,10.68-7.44,15.21-6.15,11.33,1,13.27,14.89,1.94,12.62-6.47-.32-16.18,6.47-11.33,36.89,35.6,50.81,36.89A33,33,0,0,0,449,251.38s-11.73-25.57-9.91-33.33c0,0,3.76,12.95,13.79,22,0,0-8.7-21.77-5.2-32.06,9.07,24.39,27.17,47.39,64.75,44.68,0,0,37.86,13.27,48.87-8.09,0,0,24.92,1,33.66-16.83,0,0,12-1.94,19.09-20.06s44-15.53,49.19-8.74-9.06,13.92-15.86,12.95-9.06,9.71,1,12.62S671,212.87,672,206.72s6.8,6.8,1.62,12.62S665,232,671.37,233.9c4.9,1.5,6.13-3.27,6.13-3.27s2.19,1.12,4.18-1.85c0,0-3.9-2.88-.27-11.71,2.3-5.59-6.47-14.24-3.24-15.21s10.36,13.92,11.65,22,11.33,9.06,13.59.32-23-22.65-22-26.21,19.74,11.33,25.24,20.39,14.58-3.91,8.74-9.39c-4.61-4.32,2.62-5.06-.55-5.71s-4.15,3.25-8.19,1.5c-10.12-4.38-18.12-8.31-13.92-17.48a97,97,0,0,0,5.18-15.21c1.29-4.85,9.06-5.18,7.44-7.77s-15.86-5.5-15.86,2.59-.32,13.59-4.53,16.18-8.09,5.83-21.68-1.94-20.39-13.92-36.57-9.71c-7.31,1.9-16.79,5.52-25,8.91-.58-4.68-1.87-12-4.45-14.41-3.88-3.56-6.47-13.59-6.47-13.59s-1.94,7.12.32,11.65S593,181.47,593,181.47s-2.27-10-7.44-14.89-4.85-14.24-4.85-14.24a23.47,23.47,0,0,0,0,16.09,22.33,22.33,0,0,1,1.13,11.63,45.24,45.24,0,0,0-10.51-16.71c-12-12.3-13.59-31.39,3.24-29.45s29.13,17.15,42.72,2.27,19.42-15.53,19.42-15.53-3.54,20.07,24.6,34.63c0,0-15.53-13.27-15.86-23.95,0,0,17.48,32,47.9,15.21,0,0-35,5.18-41.75-16.18,0,0,10,14.56,36.25,12s34.3,3.56,34.3,3.56S711.82,131,699.52,132.93s-29.13,1.62-34-3.24c0,0,15.53,3.56,23.62-1s20.71-1,28.16,1,17.8-2.27,21.68-6.8,11-3.24,11-3.24-5.83-4.21-14.89-1.62a57,57,0,0,1-30.42,0c-10.68-2.91-24.6,4.85-35.92,3.56,0,0,15.86-4.53,24.6-9.71s18.45,2.91,32.36-.32S741.92,98.95,750,95.71a106.45,106.45,0,0,1,12-4.21s-6.47-7.12-21,.32S716,107,701.14,99.27C701.14,99.27,722.82,103.8,735.77,90.21ZM75.13,205.47c-2.65-9.06,5.77-6.73,5.77-6.73C75.05,200.47,75.13,205.47,75.13,205.47ZM83,215.8C79.4,203.35,91,206.55,91,206.55,82.93,208.94,83,215.8,83,215.8Zm12.79,7.76c-8.3-10,3.58-11.65,3.58-11.65C93,217.32,95.83,223.57,95.83,223.57Zm14.19-13c-4.29,9,1.87,14.39,1.87,14.39C98,218.23,110,210.55,110,210.55Zm14.23,17c-16.41-10.91.16-18.51.16-18.51C117.4,219.63,124.24,227.5,124.24,227.5Zm195.49-17.78c5.16,7.9-3.57,8.12-3.57,8.12C321.26,214.47,319.74,209.72,319.74,209.72Zm326.12-31.57c8.44,6-.41,9.73-.41,9.73C649.32,182.4,645.86,178.15,645.86,178.15ZM536.14,208.31c15,3.49,4.95,13.57,4.95,13.57C543.29,212.19,536.14,208.31,536.14,208.31Zm-24.81,3.43c13.33,7.65.82,14.42.82,14.42C517.06,217.51,511.33,211.74,511.33,211.74Zm-27.4,5.37c2,15.25-11,9.37-11,9.37C482.8,225.16,483.93,217.1,483.93,217.1Zm150-26.78c4.36-9-1.75-14.4-1.75-14.4C646,182.74,633.9,190.32,633.9,190.32ZM389.48,77.07s.83,0,2.4-.05,3.86,0,6.77.12,6.45.39,10.5.8,8.62,1,13.56,2a145.65,145.65,0,0,1,15.82,3.83,116.93,116.93,0,0,1,17.11,6.5,91.56,91.56,0,0,1,16.94,10.24c1.34,1,2.64,2.17,3.95,3.28l1.89,1.77c.64.59,1.26,1.19,1.84,1.83l1.79,1.9.22.24.17.18.1.12.4.48.8,1a44.39,44.39,0,0,1,3.14,4.49,53.29,53.29,0,0,1,6.75,19.88,109.29,109.29,0,0,1,.72,19.68c-.2,6.28-.73,12.26-.91,17.86-.1,2.8-.09,5.5,0,8.08a44.7,44.7,0,0,0,.83,7.34A20.64,20.64,0,0,0,508,205.1a47.59,47.59,0,0,0,6.35,1.93l2.33.47,0,.39-2.37-.29a41.35,41.35,0,0,1-6.59-1.5,24.17,24.17,0,0,1-9.12-5.15A23.53,23.53,0,0,1,492,189.13a65.84,65.84,0,0,1-1.52-16c0-5.71.33-11.71.43-17.91a113.8,113.8,0,0,0-1-19.05,49.52,49.52,0,0,0-6.38-18.43,42.58,42.58,0,0,0-2.78-4c-.53-.63-1-1.3-1.59-1.89L477.51,110c-.54-.62-1.13-1.19-1.73-1.75L474,106.55c-1.23-1.07-2.46-2.15-3.73-3.15a94,94,0,0,0-16.15-10.11,127.31,127.31,0,0,0-16.52-6.77c-5.39-1.81-10.59-3.21-15.42-4.34a200.31,200.31,0,0,0-23.64-4c-5.76-.62-9.07-.72-9.07-.72Zm96,103.26c-10.57,20.31-23.92,4.62-23.92,4.62C476.82,189.66,485.51,180.33,485.51,180.33ZM482.94,165c-10.57,20.31-23.92,4.62-23.92,4.62C474.26,174.28,482.94,165,482.94,165Zm1.57-19.49c-12.44,21.28-28.14,4.85-28.14,4.85C474.29,155.24,484.51,145.47,484.51,145.47Zm-33.56-7.72c19.82-2.63,24.57-16.09,24.57-16.09C474.63,147,450.95,137.75,450.95,137.75Zm4.64-37.24c9.15,23.69-13.46,23.4-13.46,23.4C457,114.6,455.59,100.51,455.59,100.51ZM407.27,85.95c17.3,15-1.06,24.34-1.06,24.34C414.33,96.56,407.27,85.95,407.27,85.95ZM431.66,91C445.77,109,426,114.7,426,114.7,436.56,102.78,431.66,91,431.66,91Zm-41.84-4c3.74-1.57,8,.07,8,.07s-1.8,4.2-5.54,5.77a11.17,11.17,0,0,1-6.74.3,13.19,13.19,0,0,0,2.2-.7,14.08,14.08,0,0,0,4.38-3,14.08,14.08,0,0,0-5.19,1.05,13.19,13.19,0,0,0-2,1.08A11.17,11.17,0,0,1,389.83,87Zm.35,14.88c2.65,3.07,2.4,7.63,2.4,7.63s-4.55-.41-7.2-3.48A11.17,11.17,0,0,1,383,99.69a13.2,13.2,0,0,0,1.34,1.87,14.07,14.07,0,0,0,4.18,3.25,14.07,14.07,0,0,0-2.61-4.61,13.19,13.19,0,0,0-1.66-1.6A11.17,11.17,0,0,1,390.18,101.86Zm-6.4-7.54a4,4,0,1,1-4.35-3.67A4,4,0,0,1,383.78,94.32Zm-7.38,7.92a13.18,13.18,0,0,0,1-2.07,11.17,11.17,0,0,1-1.27,6.62c-2.1,3.47-6.51,4.64-6.51,4.64s-1-4.46,1.09-7.93A11.17,11.17,0,0,1,376,99.3a13.2,13.2,0,0,0-1.37,1.86,14.07,14.07,0,0,0-1.79,5A14.07,14.07,0,0,0,376.4,102.24Zm1.71-27.11s3.44,3,3.78,7a11.17,11.17,0,0,1-1.8,6.5,13.2,13.2,0,0,0,0-2.31,14.07,14.07,0,0,0-1.48-5.08,14.07,14.07,0,0,0-.6,5.26,13.19,13.19,0,0,0,.4,2.27,11.17,11.17,0,0,1-2.86-6.11C375.23,78.67,378.11,75.13,378.11,75.13Zm-9.56,13.65a11.17,11.17,0,0,1,5.63,3.72,13.19,13.19,0,0,0-2.19-.73,14.07,14.07,0,0,0-5.29-.17,14.07,14.07,0,0,0,4.82,2.2,13.2,13.2,0,0,0,2.28.32,11.17,11.17,0,0,1-6.69.84c-3.95-.92-6.43-4.76-6.43-4.76S364.6,87.86,368.55,88.78ZM232.71,158.35l-.16.87-.24.88c-.17.59-.32,1.21-.52,1.82a28.88,28.88,0,0,1-1.6,3.75,30.55,30.55,0,0,1-2.3,3.81c-.48.6-1,1.2-1.5,1.82a14.71,14.71,0,0,1-1.68,1.77c-4.77,4.51-10.71,8.48-16.95,13.06-3.11,2.28-6.31,4.69-9.38,7.36s-6.08,5.61-7.93,9a9,9,0,0,0-1.25,5,6.74,6.74,0,0,0,.66,2.34l.14.29.07.14h0l0,.06.45.75.22.36.2.25.38.52a11.7,11.7,0,0,0,2,1.95,9.84,9.84,0,0,0,2.38,1.39,12.2,12.2,0,0,0,5.67.83c4.07-.31,8.31-2.17,12.21-4.66a69.58,69.58,0,0,0,11.08-9.17,142.32,142.32,0,0,0,18.53-23.76c5.54-8.52,10.65-17.55,15.94-26.31A265.23,265.23,0,0,1,276,127.29c3-3.91,6.15-7.64,9.39-11.13a136.09,136.09,0,0,1,10.07-9.69A118.88,118.88,0,0,1,306,98.35c1.78-1.18,3.55-2.31,5.29-3.41s3.52-2.06,5.26-3,3.48-1.8,5.18-2.62l5.05-2.25,4.9-1.86c.79-.31,1.58-.58,2.37-.82l2.32-.74,2.24-.72c.74-.23,1.48-.4,2.19-.6l4.15-1.11c2.69-.61,5.16-1.14,7.39-1.6s4.26-.71,6-1,3.25-.37,4.46-.52l3.71-.4.05.38-3.67.58c-1.19.2-2.68.39-4.4.73l-5.92,1.21c-2.2.54-4.63,1.15-7.26,1.85l-4.07,1.25c-.7.22-1.42.42-2.14.67l-2.19.79a115.31,115.31,0,0,0-39.42,23.47,133,133,0,0,0-9.66,9.66c-3.1,3.49-6.14,7.16-9,11a280.56,280.56,0,0,0-16.41,25c-5.23,8.75-10.28,17.79-15.9,26.52a145.42,145.42,0,0,1-19.14,24.29,69,69,0,0,1-11.8,9.57c-4.26,2.63-9,4.7-13.92,5a15.54,15.54,0,0,1-7.2-1.19,14.21,14.21,0,0,1-5.61-4.45A15.91,15.91,0,0,1,187,211a9.82,9.82,0,0,1-.86-3.42,12,12,0,0,1,1.76-6.6,27.33,27.33,0,0,1,4.06-5.25,57.52,57.52,0,0,1,4.72-4.34c3.25-2.67,6.55-5,9.75-7.23l9.2-6.29c1.45-1,2.86-2,4.2-3a40.37,40.37,0,0,0,3.77-3.06,13.5,13.5,0,0,0,1.65-1.61l1.48-1.67A29.21,29.21,0,0,0,229,165a27.65,27.65,0,0,0,1.65-3.52c.21-.58.38-1.17.56-1.73l.26-.84.19-.83a32,32,0,0,0,.72-10.38,23.85,23.85,0,0,0-.55-3.65l.38-.09a24.32,24.32,0,0,1,.75,3.69A31.27,31.27,0,0,1,232.71,158.35Zm117.08-43.11c-1.09-15.9-12.91-20.66-12.91-20.66C359.62,97.15,349.79,115.25,349.79,115.25Zm-36.31-7.3c22.87-1,15.93,18.43,15.93,18.43C325.89,110.83,313.48,107.95,313.48,107.95Zm.18,30.83c-5.75-14.87-18.45-15.91-18.45-15.91C317.68,118.58,313.65,138.77,313.65,138.77Zm-32.43,68.5c12.82,5.67,2.12,13,2.12,13C287,212,281.22,207.28,281.22,207.28Zm-4.36-3.15c-2.1,4.85-8.09,6-8.09,6,1.46-8.58-4.53-14.89-4.53-14.89,3.4,7.61.81,15.7.81,15.7-2.27,1.94-6.8,3.07-6.8,3.07a39,39,0,0,0-3.88-14.73c1.78,5.5.65,15.21.65,15.21-8.58,4.53-19.42,1.94-19.42,1.94s3.07,0,14.73-2.59c0,0,2.59-15.3-1.62-26.21,0,0,9.71,9.39,12.62,18.77a159.11,159.11,0,0,0-2.27-18.77c-1.62-7.77,2.27-15.83,2.27-15.83s-.32,11,5.18,16.48,5.5,15.86,5.5,15.86,1.94-10.68-1.62-19.42a26.54,26.54,0,0,1-1.29-16.27s5.18,10.77,10.68,17.57a20.31,20.31,0,0,1,4.53,14.24c-1.13,2.75-4.53,3.07-4.53,3.07,0-6.15-3.45-12.62-3.45-12.62A32.33,32.33,0,0,1,276.86,204.13Zm-41,31.72c-3.33-15.59-15.71-18.62-15.71-18.62C243.07,216.54,235.9,235.85,235.9,235.85Zm50.56-60.69c-3.33-15.59-15.71-18.62-15.71-18.62C293.63,155.86,286.46,175.16,286.46,175.16Zm-80.92,49.91c20.07,6.6,4.56,18.68,4.56,18.68C214.76,231.17,205.54,225.07,205.54,225.07Zm-51.36-30.52c19.51,10.43,34.4,1.19,34.4,1.19C167.65,218.3,154.18,194.55,154.18,194.55Zm28.06,14.29c-8.76,19.8-20.5,3.69-20.5,3.69C174.92,217.79,182.24,208.84,182.24,208.84Zm-21.88-59.08c5.34-2.6,18.9.08,21.78.69a28.76,28.76,0,0,1-9.16-4.64c-5.5-3.88-2.07-10.4,2.27-10.94a132.06,132.06,0,0,0,13.59-2.54c-13.27.53-26.54-8.72-26.54-8.72,13.26,7.59,37.46,6.73,37.46,6.73-8.66,8.09-21.76,3.06-24.19,9.47-3.36,8.86,18.77,10.59,18.77,10.59-15.53,5.83-21,.32-30.42,2.59s5.3,11.33,5.3,11.33c-21.56,1.29-32.56-6.47-32.56-6.47,15,5,23.69,2.59,23.69,2.59C155.17,156.42,156.25,151.76,160.36,149.76Zm38.44,31.76C180,200.68,165.43,183,165.43,183,185,189.8,198.8,181.52,198.8,181.52Zm-39.25-13.08a66.41,66.41,0,0,0,34.3,1.22S162.94,182.77,159.55,168.44Zm14.86-7.24s25.25,5.32,45.18-6.31C219.58,154.89,193.27,174.54,174.4,161.2Zm-25.72,5a44.29,44.29,0,0,0,18,14.2S144.86,175.24,148.69,166.19Zm97.81-32.71s-14.31-2.49-20.89,8S206,154.7,198.11,150.66c0,0,15.65-.67,22.46-8.81S237.93,129.08,246.49,133.48Zm-7.82-20.62s-13.16,8.52-18.12,18.45c-4.21,8.41-18.77,11.31-27.83,9.62,0,0,17.88-3.12,24.6-12A50.71,50.71,0,0,1,238.67,112.86Zm-25.4,1.94s3.24,6.54-3.72,8-11.81-.12-13.35-2.22c0,0,1.86,4.53-5.74,4.85s-8.74-1-12.95-3.4-10.52-4.38-13.59-4.46c0,0,11.33-.56,18.45,3.65s14.52,1.84,9.71-5.34c0,0,2.91,0,7.61,3.88s15-.81,9.87-6.31A126.14,126.14,0,0,0,235.6,109S224.11,115,213.27,114.81ZM176.7,90.37c8.58-5,10.19-7.93,14.73-3.72s-9.87,14.61-6.47,17.74,16.83,1.48,17.31-5.78,11.17-9,12.14-3.34-6.15,11.36-6.15,11.36S225.63,103,232,99.43c0,0-14.56,8.74-27.67,8.58,0,0,11.65-10.88,6.15-13.43-3.76-1.75-6.15,3.07-6.47,5.66s-6.63,9.22-14.89,8.74-9.29-6-4.85-10.37c4.85-4.75,6.63-10,3.72-10.83s-11.65,7-17.31,6.47-10.36-7.61-10.36-7.61S168.12,95.39,176.7,90.37ZM144.38,76.62s-8.25-3.36-2.18-7c0,0-4.13,4,8.5,7.51,0,0-16.14,2.31-5.1,5.7,0,0-11,9.78-2.31,9.47,7.64-.27,10.27-1.74,10.81-2.1l.11-.08-.11.08c-1.18.86-11.49,8.65-4.5,10.6,6.81,1.9,10.53.82,11.08.63-1.08.37-13.81,4.86-9.63,8.47,2.79,2.4,7.91,2.78,11.24,2.73,1.92-.17,3.2-.18,3.2-.18s-1.32.16-3.2.18c-6.72.59-21.37,3.11-17.31,13.77,0,0-6.07-10.8,3.88-13.47,0,0-6.19-6,.73-8.51,0,0-11.08-4.59-3.48-9.81,0,0-16.67,2.55-4.77-11.22C141.34,83.36,135,77.47,144.38,76.62ZM136.13,97.7a6.38,6.38,0,1,1-11.9.53,4.47,4.47,0,1,0,2.94-3.56c.18-.1.37-.2.57-.28A6.38,6.38,0,0,1,136.13,97.7ZM125.79,69.15a6.49,6.49,0,1,1-2.9,11.77A4.55,4.55,0,1,0,120.26,77c0-.21-.09-.42-.11-.64A6.49,6.49,0,0,1,125.79,69.15Zm-36.17,22s-8.71-7.82,0-14.56c0,0,0-8.5,8.5-6.8,9.71,1.94,4.37,8,18.69,8.25,0,0-8.51,2.61-13.61-1.46-5.93-4.73-11,1-11,1s-5.1,7.65.85,10.92c0,0-2.91,7.4,5.1,8.5C98.14,97,88.6,98.5,89.61,91.18Zm15.93.34a20.55,20.55,0,0,1-6,11.45c7.88-15.58-2.91-21-2.91-21S106.51,84.52,105.54,91.52Zm.91,10.71c5.14-6.36,3.86-16.73,3.86-16.73s5.32.74,2.59,8.23S106.46,102.22,106.46,102.22Zm12.92-4.38c-3.54,5.4-6.67,5.52-6.67,5.52,5.24-4.07,6.15-12.49,6.15-12.49S122.92,92.44,119.38,97.85Zm1.69,4A20.56,20.56,0,0,0,128.13,113c5.93,4.85,15.4,13.81,7.15,20.38,0,0,3.38-7.27-3.89-13.34S119.24,106,121.07,101.86Zm-8.62,25.49s12.09-2,12.63-7.52C125.08,119.82,127.74,128.07,112.45,127.35Zm-28.69-5.1s2.61,7.32,17,3.07c14.84-4.37,22-7.69,22-7.69s-8.16,5.36-22,8.79C88.05,129.56,85.35,128.23,83.76,122.25Zm28.69,11.15s-1.43.43-4,1.47c0,0-4.81-3.64-3.34-6.75C105.13,128.12,108.8,133,112.45,133.4ZM98.11,137s1,3.35,4,4.2a34,34,0,0,0-3.52,1.47S96.48,140.71,98.11,137Zm-14.29,2.26c1.93-1,4.85-1,9.71,3.4s9.92,0,14.67-4.37,13.48-7.19,20.28-2.26-6.07-.07-11.65,2.92-14,11-20.87,9.3c-5.21-1.28-7.05-4.85-10.2-4.85S81.88,140.21,83.82,139.24ZM93,157.44c-5.1-2.18-7.29-.73-8.74-2.91s0-5.1,4.37-1.94,10.92,5.1,16.51-1.46,9-6.8,16-7.28,10.44,5.34,21.12,4.6,8.5-9.46,7.28-11.16-4.37-1.21-4.61,1.94-7.52,3.4-4.85-3.23,18.45-4.78,12.86,9.54-24,4.85-29.09,2.9-10.71-2.66-15.7,5.11S98.14,159.63,93,157.44Zm19,22.09c-10.88-4.75-11.24-16.75-11.24-16.75C102.68,170.48,112,179.53,112,179.53ZM99.8,174.46a24.23,24.23,0,0,0,15.51,8.07C102.22,186,99.8,174.46,99.8,174.46Zm21.39,2.48c-8.41.32-13.59-5.18-12.95-11.65s8.74-7.12,11.33,0c0,0,3.56-8.91,9.39-5.1s12.3,11,17.15,10.81c0,0-4.53,4.64-10.36,11.76C135.76,182.77,129.61,176.62,121.2,176.94Zm39.06,78-3-2-.76-.49-.79-.6-1.78-1.35A22.34,22.34,0,0,1,152,248.9c-.66-.61-1.39-1.2-2.07-1.91l-2.11-2.23c-.69-.8-1.35-1.68-2.06-2.56s-1.29-1.89-2-2.87-1.17-2.09-1.78-3.16c-.12-.24-.22-.49-.34-.73-1.7.68-5.75,1.93-8.91.16a10.5,10.5,0,0,0,7.64-3.06c-.38-1.14-.83-2.26-1.13-3.45a38.34,38.34,0,0,1-.88-3.81c-.11-.65-.25-1.29-.34-1.94l-.07-.64c-2,.3-5.79.52-8.35-1.68a10.48,10.48,0,0,0,8.07-1.46c0-.7,0-1.41-.08-2.11,0-1.31,0-2.61.13-3.9l.15-1.92.19-1.58c-1.84,0-6-.46-8.26-3.32,0,0,3.61,2,8.78-.07,0-.21.08-.42.11-.63.49-2.41,1-4.72,1.69-6.87.1-.35.21-.69.32-1-1.88-.62-5.44-2.17-6.72-5.32a10.46,10.46,0,0,0,7.71,2.38c.25-.69.49-1.37.74-2a74.48,74.48,0,0,1,5.65-11.79l.33.2-.32.89-.83,2.53L146,188.92c-.46,1.51-.9,3.23-1.42,5.07s-.95,3.87-1.4,6-.78,4.38-1.16,6.68-.48,4.71-.6,7.11c-.1,1.21,0,2.41,0,3.63s.09,2.42.26,3.62l.16,1.8c.06.6.18,1.18.27,1.78a34.62,34.62,0,0,0,.73,3.49c.11.58.32,1.13.49,1.69l.48,1.68c.42,1.07.78,2.16,1.23,3.2s.94,2,1.45,3,1,1.93,1.59,2.8l1.71,2.56,1.75,2.33c.57.75,1.22,1.37,1.77,2.05a21.2,21.2,0,0,0,1.65,1.84c.55.56,1.07,1.06,1.54,1.57l.68.72.66.6c.85.75,1.48,1.41,1.94,1.83l.69.66Zm147.13-36.76c4-9.15-2.34-14.32-2.34-14.32C319.17,210.11,307.38,218.18,307.38,218.18Zm-11.3,2.43c3.62-12.22-5.21-17.76-5.21-17.76C309.74,208.54,296.09,220.61,296.09,220.61Zm-4.84,2c-10.29,9.79-30.49,7.2-30.49,7.2,3.88,7.77-2.82,13.87-8.25,16.51-6,2.91-20.47-1.46-20.47-1.46,5,5.1,5.06,10.56-3.8,16.26-7.13,4.58-14.49,1.48-20.15-6.14a37.89,37.89,0,0,0-15.37-11.65c1.38,3.33,4.27,13.66-10.11,15.75-15.37,2.23-25.16-31.7-25.16-31.7-2.05,8.21,0,17.23,0,17.23s-4.2-8.74-4.85-22-6.47-18.45-6.47-18.45,8.61,3.56,14.34,17.15,12.21,39.36,25.65,31.39c12-7.12-9.41-14.56-6-28.16,0,0,4.85,9,20.63,16.18,8.72,4,18.85,24,26.29,17.15,8-7.39-5.83-9.87-7.44-23.95a40.79,40.79,0,0,0,14.08,5.5c6.33,1.22,16.79,7.12,21.52,1.62,7.93-9.22-2.43-8.9-6.8-18.77,0,0,11.82.54,19.74,2.59C277.51,227.27,291.25,222.57,291.25,222.57ZM281.93,140c22.49-4.29,18.45,15.91,18.45,15.91C294.63,141,281.93,140,281.93,140Zm154.8,30.33C425.41,174.55,419,184.63,419,184.63,425.08,167.64,436.73,170.31,436.73,170.31ZM400.49,197c-4.46-9.36,5.07-8.31,5.07-8.31C399.52,191.57,400.49,197,400.49,197Zm9.69,6.8c-8.82-12.68,5.44-13.45,5.44-13.45C407.45,196.07,410.18,203.77,410.18,203.77Zm14-13.45c-5.84,13.73,3.69,21.36,3.69,21.36C406.68,202.55,424.18,190.32,424.18,190.32Zm5.86-5.17c.34,12.74,10.45,15.28,10.45,15.28C420.8,200.87,430,185.16,430,185.16Zm52.72,58.14-2.89-1.67c-.94-.56-2-1.34-3.34-2.21-.64-.47-1.3-1-2-1.55-.36-.28-.73-.56-1.1-.86l-1.11-1a60.62,60.62,0,0,1-9.73-10.91,69.82,69.82,0,0,1-4.69-7.69,83.07,83.07,0,0,1-4-9.13,80.23,80.23,0,0,1-2.67-8.92,7.84,7.84,0,0,0-5.26,3.47c.47-3.51,3.39-5.65,4.72-6.46-.43-3.28-.53-6.65-.72-10.1-.07-1.48-.14-3-.22-4.49a7.9,7.9,0,0,0-6.35,2c1.34-3.22,4.64-4.55,6.17-5a119.38,119.38,0,0,0-1.9-15.18,7.82,7.82,0,0,0-5.88,2,9.05,9.05,0,0,1,5.31-4.71,63.57,63.57,0,0,0-4.22-12.46,7.78,7.78,0,0,0-4.05,4,9,9,0,0,1,2.87-6.45A45.61,45.61,0,0,0,436,137.7a38.84,38.84,0,0,0-3.67-3.81,7.89,7.89,0,0,0-3.8,5.36,9.22,9.22,0,0,1,1.56-7.25,50.11,50.11,0,0,0-15.43-8.1,7.81,7.81,0,0,0-1.1,6,9,9,0,0,1-1.5-6.83c-.76-.21-1.54-.38-2.31-.57-1.12-.25-2.23-.58-3.36-.76-2.27-.34-4.53-.83-6.81-1l-3.42-.33c-1.14-.09-2.29-.1-3.44-.15l-3.42-.11h-.38a7.84,7.84,0,0,0,.92,6.21,9.09,9.09,0,0,1-3.72-6.15h-.23a105,105,0,0,0-17.3,1.84,7.81,7.81,0,0,0,2.7,5.42,9.14,9.14,0,0,1-5.42-4.87q-3.18.7-6.25,1.6a99.11,99.11,0,0,0-9.4,3.33,7.8,7.8,0,0,0,4.06,4.3,9.19,9.19,0,0,1-6.64-3.2,102.24,102.24,0,0,0-10.79,5.57q-1.39.82-2.72,1.67a7.81,7.81,0,0,0,5.13,3.32c-3.26.89-6.23-.76-7.59-1.7a110.09,110.09,0,0,0-11.2,8.77,7.85,7.85,0,0,0,5.73,2.67c-3.24,1.45-6.6.08-8-.62-2.94,2.75-5.6,5.51-8,8.21a7.81,7.81,0,0,0,5.95,1.44c-2.9,2-6.42,1.3-7.92.86-.73.87-1.44,1.74-2.12,2.59-1.73,2.17-3.28,4.26-4.66,6.23a5.81,5.81,0,0,0,5.25.24,8.48,8.48,0,0,1-7,2.38c-.7,1.06-1.36,2.08-2,3-2.14,3.43-3.66,6.22-4.65,8.14s-1.44,3-1.44,3l-.36-.16s.4-1.1,1.29-3.09a92,92,0,0,1,4.27-8.44,131.45,131.45,0,0,1,8-12.37,111.2,111.2,0,0,1,12.57-14.52,103.42,103.42,0,0,1,17.93-14.18A99.68,99.68,0,0,1,358.64,121a102.48,102.48,0,0,1,27.15-4.45l3.53-.09h1l.86,0,1.72.05c1.15,0,2.28,0,3.46.13l3.62.33c2.44.15,4.78.64,7.17,1,1.19.18,2.37.52,3.55.78a34.79,34.79,0,0,1,3.53.93l3.49,1.14c1.15.44,2.27.94,3.41,1.41a31.81,31.81,0,0,1,3.33,1.61,29.73,29.73,0,0,1,3.22,1.83,45.54,45.54,0,0,1,11.2,9.6,49,49,0,0,1,7.54,12.3,68.67,68.67,0,0,1,4.12,13.2c1.89,8.82,2.15,17.43,2.34,25.38a109.46,109.46,0,0,0,.6,11.23c.07.4.12.85.2,1.21l.31,1.35c.2.9.4,1.79.63,2.61.42,1.67.94,3.32,1.45,4.93a76.57,76.57,0,0,0,7.89,16.67A59.28,59.28,0,0,0,473,235.24l1.05,1c.35.32.71.6,1,.89.68.58,1.3,1.14,1.9,1.63,1.25.93,2.29,1.77,3.18,2.37l2.77,1.81Zm-17-38.4c14.74,3.24,22.21-6.24,22.21-6.24C479.57,218.65,465.74,204.89,465.74,204.89Zm156.47-11c3.14-11-4.85-15.91-4.85-15.91C634.37,182.87,622.21,193.84,622.21,193.84ZM601.3,206c-4.37-4.13-10.44-1-12.62-9.22,0,0,1.36,3.64,13.91,1.21s15-1.46,12.06,1.21S603.73,201,603.73,201s9,6.41.24,13.94-12.38,8.71-24,7.51c0,0,14.32,9.72-3.4,15.55-16.55,5.44-29.92-2.88-31.61-4,1.67,1.14,14.06,9.94,6.13,14.34-8.5,4.71-20.39,4.22-30.1-2.33a113.78,113.78,0,0,1-18-15.76s5.59,11.88,6.12,17.95c0,0-5.74-8.92-11.07-18.52-6.17-11.1-10.78-14.74-10.78-14.74s6.55-1.7,16,10,25,25,36.65,23.3,11.89-6.8,0-11.41a25.07,25.07,0,0,1-14.81-15.53s9,7,19.66,9S569.5,240,577,233.9s-5.1-9-16-11.41-10.19-10.68-10.19-10.68a54.29,54.29,0,0,0,30.58,4.61C598.87,214,605.67,210.11,601.3,206Zm-63.08-65.11c12-15.51,19.11,1,19.11,1C546.64,134.57,538.21,140.88,538.21,140.88Zm22.59,15.33c-12.32-4-18.63,4.4-18.63,4.4C549.32,142.34,560.8,156.21,560.8,156.21Zm3.1,31a11.78,11.78,0,0,0,.81,1.89A10,10,0,0,1,561,184.4c-1.11-3.45.68-7.11.68-7.11s3.6,1.92,4.71,5.37a10,10,0,0,1-.25,6,11.79,11.79,0,0,0-.45-2,12.57,12.57,0,0,0-2.31-4.12A12.56,12.56,0,0,0,563.9,187.24Zm-.58,18.09a12.56,12.56,0,0,0,2.32-4.11,11.78,11.78,0,0,0,.46-2,10,10,0,0,1,.23,6c-1.13,3.44-4.73,5.35-4.73,5.35s-1.78-3.67-.65-7.11a10,10,0,0,1,3.74-4.72,11.78,11.78,0,0,0-.81,1.89A12.57,12.57,0,0,0,563.32,205.33Zm-1.57-12.14a11.78,11.78,0,0,0-2-.19,12.57,12.57,0,0,0-4.64.92,12.56,12.56,0,0,0,4.63.94,11.78,11.78,0,0,0,2-.18,10,10,0,0,1-5.65,2.08c-3.62,0-6.55-2.85-6.55-2.85s2.94-2.83,6.56-2.82A10,10,0,0,1,561.75,193.19Zm12.5-8c2.93-2.12,7-1.55,7-1.55s-.72,4-3.65,6.14a10,10,0,0,1-5.8,1.62,11.78,11.78,0,0,0,1.77-1,12.56,12.56,0,0,0,3.21-3.47,12.57,12.57,0,0,0-4.3,2,11.77,11.77,0,0,0-1.55,1.35A10,10,0,0,1,574.25,185.24ZM572.42,199a12.57,12.57,0,0,0,4.29,2,12.57,12.57,0,0,0-3.19-3.48,11.78,11.78,0,0,0-1.77-1.06,10,10,0,0,1,5.79,1.64c2.92,2.13,3.63,6.15,3.63,6.15s-4,.56-7-1.58a10,10,0,0,1-3.33-5A11.78,11.78,0,0,0,572.42,199ZM570,191.84a3.6,3.6,0,1,1-5-.81A3.6,3.6,0,0,1,570,191.84Zm-1-19.25c-15.42-4.06-23.7,5.62-23.7,5.62C555,157.48,569,172.59,569,172.59Zm-4.55-43.48c-5.38-11.79-15.85-10.72-15.85-10.72C566.84,111.27,564.42,129.11,564.42,129.11Zm16.9,1.45c4.33-9.83-2.11-15.72-2.11-15.72C593.69,122.22,581.32,130.56,581.32,130.56ZM602.87,135c4.33-9.83-2.11-15.72-2.11-15.72C615.24,126.64,602.87,135,602.87,135Zm5.56-22.19a27.71,27.71,0,0,1-5,1.47,19.79,19.79,0,0,1-3.7.33,20,20,0,0,1-4.33-.57,85.85,85.85,0,0,1-9.8-3.52,54.62,54.62,0,0,0-11.8-3.14,61.61,61.61,0,0,0-6.65-.54c-2.28,0-4.6,0-7,.18a31.39,31.39,0,0,0-13.84,3.92,24.86,24.86,0,0,0-9.86,10.91,42.62,42.62,0,0,0-3.77,14.45,77.83,77.83,0,0,0,.09,14.59,117.59,117.59,0,0,0,2.1,13.52,107.93,107.93,0,0,1,2.21,12.11,57.89,57.89,0,0,1,.33,10.41,34.16,34.16,0,0,1-1.38,7.92,19.09,19.09,0,0,1-2.14,4.73,8,8,0,0,1-1.16,1.47l-.26-.28a7.58,7.58,0,0,0,.94-1.5,21,21,0,0,0,1.61-4.73,32.93,32.93,0,0,0,.72-7.72,47.62,47.62,0,0,0-.31-4.77c-.17-1.68-.38-3.43-.71-5.26s-.71-3.72-1.2-5.66-1-3.91-1.56-6.1-1.06-4.39-1.53-6.7-.8-4.68-1.09-7.12a73.44,73.44,0,0,1-.39-15.26,45,45,0,0,1,4-15.79,30.79,30.79,0,0,1,4.79-7.08,27.45,27.45,0,0,1,6.68-5.35,29.58,29.58,0,0,1,7.72-3,40.24,40.24,0,0,1,7.79-1.06,65.54,65.54,0,0,1,7.26,0,64.66,64.66,0,0,1,7,.83,53,53,0,0,1,12.19,3.85c3.58,1.54,6.57,3.22,9.36,4.09a17.14,17.14,0,0,0,7.48.79,31.39,31.39,0,0,0,4.95-1l1.73-.55.16.35Zm14.29,12.46c1.43-10-5.86-13.66-5.86-13.66C631.79,114.61,622.72,125.25,622.72,125.25Zm12.5-10.73c-.49-10.05-8.36-12.29-8.36-12.29C642.09,102.34,635.23,114.52,635.23,114.52Zm29-.5a18.09,18.09,0,0,1-2,3.35,17.58,17.58,0,0,1-2.27,2.48c1.08,1.52,4.28,4.86,11.67,5,0,0-9.27,3.61-14.61-2.9a14,14,0,0,1-2.25,1c-.34.11-.69.2-1,.29a12.29,12.29,0,0,0,4.29,7.23s-5.53-2.31-7.83-7l-.46-.05-.27,0h-.07l-.13,0h0l-.1,0-.85-.21a10.73,10.73,0,0,1-2-.74,8,8,0,0,1-4.46-5.57,12.06,12.06,0,0,1-.08-4.93,15.45,15.45,0,0,1,.79-2.91c.24-.65.4-1,.4-1l.38.1s-.09.33-.21,1a18.92,18.92,0,0,0-.28,2.83,12.21,12.21,0,0,0,.62,4.32,6.39,6.39,0,0,0,3.73,3.93,8.87,8.87,0,0,0,1.5.43c.26.05.55.08.82.12s.54,0,.82,0a9,9,0,0,0,3.36-.64,12.75,12.75,0,0,0,5.69-4.69,14,14,0,0,0,2.51-7.48,12.46,12.46,0,0,0-2.42-7.69A18.33,18.33,0,0,0,653.23,95a21.34,21.34,0,0,0-7.68-2.3,27.94,27.94,0,0,0-7.55.26,39.3,39.3,0,0,0-6.59,1.71A53.45,53.45,0,0,0,622.15,99c-2.13,1.25-3.26,2.09-3.26,2.09l-.23-.31.75-.73c.5-.46,1.22-1.16,2.22-1.94a43.89,43.89,0,0,1,9-5.58,40.15,40.15,0,0,1,4.69-1.81c-.56-9,3.83-17.69,3.83-17.69-1.34,9.57.19,14.83.89,16.63.49-.08,1-.15,1.49-.21a22.67,22.67,0,0,1,4.36-.09,26.25,26.25,0,0,1,2.71.33A24.1,24.1,0,0,1,652.39,73s-1.7,10.94-.46,17.48a22.21,22.21,0,0,1,3,1.21l.54.29c.37-1.93,2.63-12.33,9.65-18.25a49.75,49.75,0,0,0-6.8,20c.23.17.47.34.69.52l.43.33.51.45c.33.3.71.61,1,.93l.89.95.34.42c1.2-3.1,5-11.29,12.54-15.76A108.22,108.22,0,0,0,664,100.13a15.94,15.94,0,0,1,1.1,2.83c2.53-1.34,9.33-4.24,16.9-1.46,0,0-10.1.1-16.29,5.28,0,.42,0,.84,0,1.26a15.18,15.18,0,0,1-.43,3c3.3.94,10.19,1.56,21.1-3.76C686.37,107.32,676,116,664.26,114Z"/></svg>