<svg id="Layer_1" data-name="Layer 1" xmlns="http://www.w3.org/2000/svg" viewBox="0 0 612 662.97"><defs><style>.cls-1{fill:#fff;fill-rule:evenodd;}</style></defs><title>Artboard 2</title><path class="cls-1" d="M522,121.51c4-2.63,9.08,2.22,15,1,.39,10.15-1.8,26.13-7,34C521.87,146.9,521.69,136.17,522,121.51Z"/><path class="cls-1" d="M522,214.51c5.49,3.18,8.89,8.44,10,16C527,226.82,522,223.18,522,214.51Z"/><path class="cls-1" d="M518,223.51q9.44,6.06,12,19C522.73,239.45,521,230.86,518,223.51Z"/><path class="cls-1" d="M516,234.51c5.14,3.66,8.45,14,7,21C518.17,251,517.47,242.37,516,234.51Z"/><path class="cls-1" d="M501,244.51c6.06,0,7.19,13.46,7,23C501.68,263.83,503.2,252.31,501,244.51Z"/><path class="cls-1" d="M511,360.51a41.74,41.74,0,0,1,10,5c-4.83,10.84-12.58,18.75-20,27C498.15,379.65,508.31,371.16,511,360.51Z"/><path class="cls-1" d="M69.5,140.6c5.17,2.17,12.92,10.4,19,15,4.53-6.45,2.4-15.29,8-19,8.12-5.38,20.57-2.31,25,4,2.46,3.51,1.87,9.24,4,13,5.91,10.44,15.15,12,24,15-6.58-9.65-3.23-30.49,6-38-7.93-.88-17,1.59-25-2,9.64-5,24-5.33,36-8-10.6-7.73-25.39-11.28-41-14,23.09-4.42,39.78,6.21,60,8,2.86-21.47,11.56-37.1,31-42-6.64-12.31,2.44-28.9-3-43,3.73-.66,8.51,5.24,14,9,4.35,3,10.14,8.1,16,10,11.78,3.83,27.27,1.23,35,9,3.16-4.74,11-26.67,18-33,4-3.61,10.14-5.29,17-5-.25,11.75-8.56,15.44-15,21,4.6-2.3,17-2.28,21,4,6.37-6.29,8.19-17.15,14-24h10c2.3,15.3-4.94,21.06-12,27,5.67-2.38,22.49-8.93,29,0-9.92,14.42-36.88,11.79-45,28,11.62-3.13,33.22-1.3,41,8,26-16.06,63.16,5.1,54,36,14.27-4.17,25.9,1.58,42,1-16.39,4-20.14,25.85-14,44,13-2,29.36-1.39,38,4,1.75-11.59,7.23-19.43,14-26-12.37-7.45,2-24.78,16-24-1.07-23.93,27.42-16.64,37-7,4.11-.55,6.47-2.87,11-3,8.46,5.21,12.46,14.87,22,19-4.79.44-14.76-2.56-19-6-2,4.88-2.92,19.54-10,25,2.54,7.78,4.72,19.07-1,25,4.63,3.11,15.85,5.39,23,9,3.17-5.83,5.69-12.31,9-18-3.75,9.93,3.21,30.09-9,33-11.74,2.8-16.48-11.22-29-12-13.71,21.72,18,45.33,5,66-5.8,9.2-22.34,7.74-31,16-10,23.36-16.08,50.59-35,65,5.64,3.7,13,5.68,17,11,13-10,28.66,1.27,33,12,15.31-7.14,22,10.33,20,27-3.48-3.86-6.8-7.87-8-14-6.3,3-8.56,10.1-17,11-1.38,8-8.1,10.57-11,17,6.83-.12,24.85-8.76,32,0-1,9.37-7.68,13-8,23-1.72-2.95-2.12-7.21-2-12-27.33-8.54-37,16.65-48,31,2.63,2.37,14.58-1.66,21-2-5.87,4.79-13.32,8-21,11,13.87,9.47,29.67,25.55,27,49-1.16,10.17-6.86,15.38-11,24-.61,1.73-4.74-.08-5,2,13,4.42,23.74,13.68,23,27-1.34,24-40.31,27.52-46,47-1.51,12.82-9.51,19.16-17,26,11.19-8.48,10.36-37.64,19-52-18.29,11.81-32.83,26.67-59,27-17.43.22-34.7-6.27-50,0-6.59,2.7-10.25,9.9-15,14-17.3,15-45.37,29.71-74,33-55.06,6.32-76.64-35.5-117-54-1.27,6.2,5.32,22,5,30-10-10.85-8.66-27.48-14-41-5.46-13.81-14.45-27-12-43-10.73,12.61-17.15,29.51-22,48-1.08-18.09,9-33.71,14-49-14,3.48-43.72,8.91-63,4a19.12,19.12,0,0,0-4-6c.13-31.54,8.45-54.88,11-84-10.61,4.06-16.62,21.37-30,26-11.6-1.4-12.92-13.08-14-25,4.58,2.42,5.63,8.37,10,11,4.34-2.66,6.35-7.65,13-8,1.73-5.94,4.71-10.62,10-13-3.46-9.57,1.11-18.57,7-22-9.29-3.38-8-17.36-17-21-4.11,2.22-7.37,5.3-12,7,6-5.66,5.76-17.57,13-22,4.09-.42,4,3.29,9,2,7-6,10.16-15.84,21-18-11.58-19.43.43-44.65,9-59-16.67,0-31.39-6.12-28-23,3.34,1,.84,7.83,3,10,8.93,10,28.07,9.25,27-9-1.5-25.55-39.3-46-35-80,2-15.92,13.44-20,27-33-12.44-5.56-21.78-14.22-30-24,7.51,1.83,14.8,12.53,25,15C82.59,156.17,74.71,147.07,69.5,140.6Zm190-70c-4.88-10.13-16.61-18.72-28-19C241.68,57.08,249.59,64.84,259.5,70.6Zm18,5c-2.56-14.44-18.54-20.79-31-22C259,58.73,265.83,69.6,277.5,75.6Zm7-12c5.84,2.82,6.69,10.64,11,15a90.07,90.07,0,0,1,15-25C298.43,49.83,289.23,56.78,284.5,63.6Zm-35,7c-4.73-7.6-11.87-12.8-22-15C233.41,61.36,243,68.73,249.5,70.6Zm-10,2c-.56-6.79-9.58-10.4-14-10C229,67.07,234.39,69.71,239.5,72.6Zm-4,3c-2.35-4.33-9.63-9-14-8C223.38,73.05,229.3,74.47,235.5,75.6Zm89,6c14.59,4.08,24.52,12.81,26,30C365.23,96.21,343.79,68.58,324.5,81.6Zm-115,24c10.23-9.24,21.73-18,39-20,4-.45,11.65,2.17,14-3C238,75.32,212.81,88.49,209.5,105.6Zm162-20c20.37.64,29.27,12.73,36,27C408.42,92,390.17,76.92,371.5,85.6Zm-28,23c2.68-12.58-4.64-23.18-20-21C330.37,94.39,341.15,97.28,343.5,108.6Zm-57,7c12.42-3.32,16.66-15.12,18-27C298.1,97.2,292.4,106.49,286.5,115.6Zm89-22c10.63,5.37,19.45,12.55,25,23C404.95,101.21,387.64,89.06,375.5,93.6Zm-56,2c8.67,2.66,12.7,10,19,15C340.09,98.78,326.87,91.87,319.5,95.6Zm75,30c4.1-16.65-8.15-24.12-21-27C381.81,106.28,389.41,114.69,394.5,125.6Zm-65-11c3.66-9.37-6.64-17.74-16-14C319.6,104.5,326.43,107.67,329.5,114.6Zm54,17c8.34-9.48-1.85-24.23-11-26C376.25,114.18,382.43,120.33,383.5,131.6Zm-74-24c4.07,5.27,10.72,7.94,14,14C326.79,110.81,319.05,104.66,309.5,107.6Zm-100,11c7.36,1.63,13.48-1.79,20-2,16.4-.53,26.32,7,37,14C262.45,111.42,224.46,102.94,209.5,118.6Zm325,28c5.2-7.87,7.39-23.85,7-34-5.92,1.22-11-3.63-15-1C526.19,126.26,526.37,137,534.5,146.6Zm-233-31c6.64,1.7,9.24,7.43,15,10C319.16,115.56,307.38,110.57,301.5,115.6Zm29,54c-14.56-13.91-7.41-40,8-48,1.12-1.44,1.08-2.44-1-3C314.24,124.36,302.6,162.1,330.5,169.6Zm45-30c-2-6-1.63-14.37-5-19C362.32,125.27,368.46,138.25,375.5,139.6Zm-200-15c10.4,1.27,16.39,6.94,24,11,5.64-3,13.79-3.54,21-5-4.17-5.53-14.8-6.14-21-2C194.58,123.7,183,118.27,175.5,124.6Zm116,37c-5.54-5.22-8.88-11.64-8-19,1.62-13.51,16.88-14.2,28-12C286.05,100.42,255.52,161.14,291.5,161.6Zm215-38c-1.38,3-4.62,4-6,7,8.23,5.77,14.38,13.62,23,19C520.85,137.91,513.88,130.55,506.5,123.6Zm-118,17c9.75,1.3,18.72-8.46,15-14C399.88,132.64,391.76,134.19,388.5,140.6Zm-32-12c-25.09-7.62-39,26.88-16,32-17.56-21.77,17.21-32.64,19-10,.77,9.74-7.57,14.2-11,22,8.08,6.62,11,21,1,27-16.33,9.76-25.43-10.17-15-21-11.2,1.77-14.94,16.68-9,25,8.14,11.39,35.3,8.39,39-8,2.19-9.7-2.75-15.25-8-24C375,165.45,372.72,135.54,356.5,128.6Zm-162,22c5.12-5.22,15.31-5.36,21-10-4.72-2.57-14.09-2.54-20-1-3.88-4.8-12-10.62-19-9C183.66,136.11,189.25,143.18,194.5,150.6Zm71,5c4.22-13-5.36-20.57-14-24C256,139.78,263.58,144.85,265.5,155.6Zm29,0c-3.18-12.33,3.93-16.41,11-21C291.63,124.65,279.4,151.07,294.5,155.6Zm-144-1c6.33-4.45,6.78-11.18,15-12,9.34-.93,16.75,6,17,14,.14,4.48-4.45,8.52-3,12C210.92,150.48,151,110.35,150.5,154.6Zm90-18c9.08,4.92,12.31,15.69,18,24C263.56,146.35,248.47,134.43,240.5,136.6Zm-9,8c8.48,5.35,13.73,18.72,11,32C261.61,169.54,245,138.77,231.5,144.6Zm182,58c13.21-10.54,15.47-38.41,10-59C420.59,163.68,420.37,186.47,413.5,202.6Zm78-47c8.89,1.45,20,6,26,7-2.75-10.58-12.36-14.31-22-18C494.22,148.32,492.3,151.4,491.5,155.6Zm-333-6c1.31,4.24-3,7.92,1,9,1.13-6.38,10.13-7.46,13-2,.69,4-1,5.71-1,9C188.2,159.41,169.57,136.9,158.5,149.6Zm259,57c18-8.52,21.89-39.55,13-61C428.79,167.65,429.69,192.79,417.5,206.6Zm-15-10c9.69-10.82,11-34.87,6-50C407.47,164.72,405.84,181.7,402.5,196.6Zm-179-49c-18.25-1.92-27.89,4.78-29,20,7.41-4.42,11.72-11.58,22-10,18.76,2.87,9.32,30.38-6,33C240.87,194.39,245.07,156.73,223.5,147.6Zm187,48c7.21-8.63,11.77-31.86,5-45C415.48,166.58,411,183.45,410.5,195.6Zm-13-4c7.63-8.18,10.61-28.64,4-40C399.18,163.28,398.4,181.82,397.5,191.6Zm-10-6c-3.45,5-12.74,7.58-11,12,19.73.33,25.74-27.26,17-43C391.61,166.69,393.28,177.26,387.5,185.6Zm-18-8c3.49,4.21,12.34,3.36,16,0,4.47-9.29-.34-17.31-7-21C384.72,168.62,379.32,175.67,369.5,177.6Zm-149-16c-9.68-3.57-17.67,2-20,9,3.88-3.58,14.31-2.58,15,3,1.11,5.44-3.4,5.27-3,10C222.38,183.4,227,169.11,220.5,161.6Zm-88,16c-1.16,3.84-7.08,2.92-8,7,3,2.46,7.91,2.06,12,1,1-1.33.95-3.72,3-4,2.39-22.16-24.39-17-38-18C107.55,174.68,130.62,162.55,132.5,177.6Zm333,10c10.73-5.53-2.42-20.52-10-17C460.47,174.63,462.78,181.32,465.5,187.6Zm-203-3c-.91-4.58,4.48-2.86,6-5C267.87,161,247.89,179.12,262.5,184.6Zm224-13c10.53,11.67,18.71,30.28,18,46C527.62,206.9,527.24,158.66,486.5,171.6Zm-206,13c3.06-.61,5.21-2.12,8-3-.83-2.83,1.41-2.59,1-5-3.54-3.08-6.4-5.28-11-5C275.59,177.83,278,179.45,280.5,184.6Zm180,4c.11-6.18-7.91-16-12-14,5.37,10.62-5.52,23.48-3,28C452.32,199.38,460.35,197.18,460.5,188.6Zm-359-11c-21.27,1.78-34.69,14.42-34,33,1.27,34.09,42,48.1,35,86,13.47-11.05,26.91-22.61,38-36s22.41-29.07,22-53c-10-3-20.15-5.85-29-10,.82,8.85,6.31,18.34,3,28-5.9-16.1-23-21-30-36-1.47,12.48,3.09,24.23,2,33A102.28,102.28,0,0,1,101.5,177.6Zm68,20c5.31-7.14-.12-18.62-7-20C164.52,184.57,165.1,193,169.5,197.6Zm-10-3c1.17-9.18-6-15.32-11-15C152.54,184.23,153,192.47,159.5,194.6Zm323,55c26.25-8.61,21.4-66.58-3-70C495.47,194.22,497.92,232.49,482.5,249.6Zm-358-53c-4.3-5-6.43-12.24-11-17C108.68,187.46,117.73,197.73,124.5,196.6Zm68,1c5.31-6.57-.9-13.76-5-17C186.77,184.93,189.95,193.29,192.5,197.6Zm103-10c2.66,2.34,3.76,6.24,8,7-.15-3.15,4.05-1.95,5-4,1.37-5-2.05-5.28-2-9C300,179.54,297.4,182.68,295.5,187.6Zm128,22a23.5,23.5,0,0,0,16-28C435.95,192.71,428.86,200.29,423.5,209.6Zm50-17c4.85.15,4.8,5.2,9,6,1.9-6.81-2.58-14.34-8-17C475,186.09,474,189.09,473.5,192.6Zm-293,8c5.74-4.08,4.81-15.93-2-18C178.75,189,179,195.47,180.5,200.6Zm63-8c-12,1.58-27-.66-31,11,16.07-4.93,35.68-6.32,53-10C261.24,184.27,251.61,191.53,243.5,192.6Zm42,24c14.78-3.63,9.2-27.41-7-25C282.79,199.21,293.48,205.14,285.5,216.6Zm177-15c1.62,3,3.08,6.25,7,7,6.47-3,6-13.8-1-16C467.7,196.8,463.15,197.24,462.5,201.6Zm-242,65c4.36-10,14.46-21.65,21-27,7.66-6.27,17.19-9.44,20-18,6.06-18.47-13-25.39-25-16,7.46-.22,17.2,3.23,18,11,1.42,13.75-24,23.29-31,32s-8.93,21.65-14,32c-5.37,11-12,15.6-17,23C215.33,303.34,213,283.81,220.5,266.6Zm73-38c2.82,18.67,33.48,24.85,44,9-12.49,3.64-34.11,4.42-37-11-2-10.93,5.59-18.54,14-24C298.9,202.73,291.63,216.26,293.5,228.6Zm196-7c.88-6.84.77-14.36-3-19C485.61,209.38,481.67,219.31,489.5,221.6Zm-18,3c6.42,2,13.34-14.18,6-20C473.16,210.89,469.1,213.12,471.5,224.6Zm65-4c-1.11-7.56-4.51-12.82-10-16C526.5,213.27,531.52,216.91,536.5,220.6Zm-68,6c-.57-12.77-12.5-19.49-24-18C455,212.15,461.21,219.88,468.5,226.6Zm-301-14c-3,18.34-11.52,34.35-20,46-2.65,3.65-7.83,6.57-7,11,13.35-.35,19.4,6.6,26,13-.7-14.36,4.82-22.51,16-25-11.65,11.83-4.2,35.6,15,28,17.73-19.07-14.19-45.75,1-69-11.75-.92-21.27-4.06-31-7Zm171,13c-11.76,8.91-34.47,1.42-25-16C284.79,223.13,331.08,252.71,338.5,225.6Zm13,9c13.67,22.83,56.2,2,41-24C391.45,232.48,369.4,241,351.5,234.6Zm4-15c1,19.64,34.67,9.42,24-7C376.91,223.73,363.82,227,355.5,219.6Zm-119,10c10.36-2.23,2.17-18.91-5-15C234.12,218.64,237.53,221.9,236.5,229.6Zm172-5c11.75,1,23.74-6.2,37-7C435,209.38,416.09,217.76,408.5,224.6Zm126,8c-1.72-8.61-5.7-15-12-19C525.49,220.94,527.23,229.54,534.5,232.6Zm-326,22c2-13.22,12.34-22.65,9-34C212.8,229.54,201.17,243,208.5,254.6Zm266-24c1.38,4.95.9,11.77,4,15,5.44-4.46,9-18.25,2-24C481.11,227.2,475.32,226.41,474.5,230.6Zm-67,0c14.39,5.91,28.53-3.55,42-5C436.64,217.42,421.49,230.2,407.5,230.6Zm-129-5v7c1.44,2.6,8.62,4.66,12,2-2.26-.74-.39-5.61-1-8C286.34,225.9,282.1,222.72,278.5,225.6Zm249,20c1.45-7-1.86-17.34-7-21C522,232.46,522.67,241.09,527.5,245.6Zm-276-2c4.88-6.13,16-11.36,17-18C261.76,229.87,250.8,235.22,251.5,243.6Zm149-9c10.07,12.86,36.86,5.45,46-3C434,231.18,416.82,238.83,400.5,234.6Zm112,23c.19-9.54-.94-23-7-23C507.7,242.4,506.18,253.92,512.5,257.6Zm-102-11c-4,8.63-10.22,15.11-17,21,12,6.34,36,16.43,49,4-7.61-7.72-25.14-5.53-37-9,24.67-6.27,61.5,14.08,62-20C447.89,230.73,430,249.61,410.5,246.6Zm-120,1c-3.43-3.91-8.91-5.76-15-7C276.38,247.05,282.78,248,290.5,247.6Zm-13,20c2.5.88,3,9,1,11,.26-5.93-2.06-9.27-4-13-2.23,3.1-2.85,7.81-5,11-2-11,1.52-22.63-1-34-5.71,6.29-13.48,10.52-25,11-16.69,10-12.61,40.73-22,58,1.83,1.84,4,3.38,5,6,10.75,2.74,16.6-9.3,26-10s16.86,4.1,19,15c17.43,2.85,44.22,14.08,58,0-13.93-2.4-24-8.64-36-13,25.3-1.86,39.74,13.26,60,3-8.77-12.23-33-9-49-14,27.54-8.52,52.7,6.67,74,4-13.1-12.24-38.76-11.91-60-16,9.16-.59,16.55.21,25,0,23.34-.59,47.72,14.34,67,0-9.47-4.19-17.38-10-26-15-12,7.8-28.65-2.5-37-4,1.38.1,3.9,3.9,2,4-2.77-1.68-9.13-7.77-11-4,2.64-.3,2.58,2.09,3,4-4.15-.55-9-5.58-13-3,2.73-.32,5.27,4.62,4,5-3.73-3.93-10.66-4.67-15-8,0,3.09,5.06,6.2,3,8-3.8-3.2-9.48-4.52-14-7,.9,3.46,7.24,6.72,6,9-2.93-.79-7.75-4.86-10-3,1,1.38,4.91,5,3,6-2.18-3.15-5.6-5.07-9-7-.44,2.22,3.09,5.42,1,6-3.07-.64-5-7.59-8-5,1,1.69,3.9,6.68,2,8C287.94,275.81,281.9,268.21,277.5,267.6Zm104-2c-19.58.25-29.45-9.22-35-23C345.27,262.18,364.6,273.73,381.5,265.6Zm113-6c3.71.62,5.86,2.81,9,4,.23-4.47.44-16.94-4-20C500.41,251.5,494.38,252.47,494.5,259.6Zm-147,4c-3.57-5.43-2.75-15.25-8-19C336.22,253.79,341.53,260.58,347.5,263.6Zm56-18c-4,3-10.44-.19-14-1C388,255.12,406.23,251.43,403.5,245.6Zm-19,3c-7,3.11-19.45-.82-24,0C365.17,255.18,380.27,256.87,384.5,248.6Zm1,7c-9.73,3.66-24.63-.16-30-7C355.53,261.58,378.52,264.21,385.5,255.6Zm-105,7h15c-8.17-1.84-16.84-8.48-21-11C276.15,255.61,277.61,259.82,280.5,262.6Zm31-3c-7.31-.35-8.15-7.18-15-8C295.34,259.51,308.31,262.54,311.5,259.6Zm20-2c-8.89,1.21-15.23-5.42-21-4C312.63,259.8,326,263.74,331.5,257.6Zm53,57c37.14-10.2,77.57-25.76,99-55-.11-1.22-.3-2.37-2-2C454.94,282.37,414.42,293.19,384.5,314.6Zm98-43c7.56,3,16.13-.1,19-5-4.12.39-7.76-3.72-13-5C488.14,266.58,483.57,267.33,482.5,271.6Zm9,6c2.46,4.21,4.33,9,8,12,1.48-5,8.06-15,4-19C501.47,274.9,494.66,274.42,491.5,277.6Zm-16,0c1.89,7.12,10.14,13.18,18,11-2.61-2.72-3.12-7.55-5-11C483,276.87,478.78,272.58,475.5,277.6Zm-5,4c-2.15,3.52-8.45,2.89-9,8,5.57,3.39,15.41,5.79,20,0C475.73,289,476.13,282.3,470.5,281.6Zm-227,78c6-9.75,24-19.85,14-36-21.77-.75-48.77,29.09-53-7-11,5.31-24.25-2.45-22-13-6-2.3-9.85-6.82-14-11-5.46,30.93-49.76,24.48-45-9-10.35,8.76-44.81,42.3-38,68,5,18.76,27.85,3.35,29-9,.31,13.31-7.45,18.55-16,23,5.89,1.17,5.93,7,12,10,8.23,4.07,19.44,2.57,21,11,3.32,17.89-32.21,19.59-34,35,14.73-.84,23.31-1.89,38-3,2.3-4.69,1.52-12.48,6-15-.88,7.88,5.31,8.69,4,17,15.85,1.18,27.85-1.48,32-12-5.37-2.29-13.26-2.07-19-4,16.21-5.45,40.94-2.39,51-14-7.85-16.49-41.45-7.22-56-17,24.81-.24,44.21-1.54,70,2,3.89-3.11,10.41-3.59,13-8-14.36-5.31-28.28-11.05-43-16C210.77,353.66,229.08,354.69,243.5,359.6Zm198-60c1.36,7,6.21,10.46,16,9-2.78-4.51-1.54-15.09-4-17C450.63,295.39,444.55,296,441.5,299.6Zm41,10c-4.74-3.26-9.23-6.77-11-13-5.47.47-8.25-1.75-12-3C454.88,310.48,474.43,314.84,482.5,309.6Zm-4-10c1.71,5.3,6.53,7.47,13,8,1.12-5.88,6.54-7.46,7-14C490,297,482,290.56,478.5,299.6Zm-57,8c1.47,9.53,8.73,13.27,18,15-1.25-3.3-.68-16.49-4-21A104.31,104.31,0,0,1,421.5,307.6Zm-15,8c3,3.34,10.74,7.24,17,4-3-2.95-3.66-8.34-7-11C414.65,312.41,408.36,311.78,406.5,315.6Zm60,16c-2.67-6-6.72-10.61-7-19-6.64-.58-10.56,2.06-16,0C442.74,327.36,454,330.06,466.5,331.6Zm6-3c4.69-3.64,10.08-6.58,12-13a55,55,0,0,1-19,0C465.83,321.93,467.25,327.18,472.5,328.6Zm-90-3c1.72,6.29,11.43,9.89,18,8-3.46-2.83-.91-12.55-2-15C393.95,321.71,387,322.45,382.5,325.6Zm39,20c-2.15-5.85-1.37-14.63-3-21-6.38,0-9.49-3.18-14-5C399,334.14,406.91,345.35,421.5,345.6Zm17,0c-3.83-3.71-3.23-12-1-17-4-1.37-7.15-3.51-13-3C419,336.77,427.51,348.56,438.5,345.6Zm-150,6c-19.75,9.43-42,18.24-53,35,37.48-21.86,76.18-42.49,118-60C328.41,328.22,308.47,342.06,288.5,351.6Zm99-2a46,46,0,0,1,1-13c-5-2.35-7.92-6.75-13-9C367.17,338.55,377.9,351.13,387.5,349.6Zm56-3c7.48-2.52,16.07-3.93,20-10-9.33-.33-13.68-5.66-20-9C439,331.67,440.32,342.06,443.5,346.6Zm-173-5c7.35,5,21.43,3.24,24-5-8.29-.37-14.22-3.12-21-5C272.18,334.61,270.27,337,270.5,341.6Zm95-10c-3.68,2.66-11.36,1.3-13,6,3,3.38,7.51,5.16,13,6C364.31,339.29,370.21,332.93,365.5,331.6Zm-34,14c1.13,5.54,6.78,6.56,12,8-.64-4.36,1.3-11.3-1-14C339.84,342.61,334.22,342.65,331.5,345.6Zm66,13c2.21-6.12,8.2-8.46,13-12-7.61-.72-7.56-9.1-18-7C389.3,347,393,355.62,397.5,358.6Zm-35,3c-1.05-4.08.49-7.05,0-13-5.18-2.49-11.13-4.2-15-8C343.3,352.91,351.53,361.15,362.5,361.6Zm122-18c-1.6,14.77,2.84,23.79,8,34,3.57-8.77,6.5-18.16,6-31C493.83,346,487.8,342.38,484.5,343.6Zm-107,26c-2-3.37,1.57-9.73,2-14a68.37,68.37,0,0,0-11-11C361.2,354.7,369.55,369.44,377.5,369.6Zm64-15c10.39,6.18,4.79,24.24,13,33,5.46,5.82,14.14,7.36,25,4,4.33-18.59-11.83-26.62-14-40-.47-2.9,2-4.21-1-7C456,347.08,447.59,349.69,441.5,354.6Zm-103,17c-3-4.42,2.38-8.92,1-15-6.58-1.42-9.44-6.56-15-9C317.56,359.61,327.36,374.64,338.5,371.6Zm-82-15c5.67,2.13,9.77-.95,14-3C267.44,345.45,257.94,349.87,256.5,356.6Zm50,0c3.56,1.47,8,7.28,12,5-3.58-3.75,1.3-10.73-2-11C314,353.39,307.29,352.06,306.5,356.6Zm90,10c-16,.25-24,12-24,25,6.88-7.79,11-18.33,26-18,4.81-11.19,15.48-16.52,25-23C407.42,348.85,401.84,357.6,396.5,366.6Zm109,16c7.42-8.25,15.17-16.16,20-27a41.76,41.76,0,0,0-10-5C512.81,361.24,502.65,369.74,505.5,382.6Zm-125-15a46.79,46.79,0,0,1,13-5c-.72-3.94-3.47-5.87-6-8A19.49,19.49,0,0,0,380.5,367.6Zm-82,6c3.33,5,8.6,8.06,15,10,.5-5.5-1.1-13.1,1-17-4.22-2.77-8-6-14-7C297.87,362.3,298.52,368.28,298.5,373.6Zm43-1c2.95,4.07,9.58,9.74,15,8-2.91-4,.41-10.23,0-15-5.12-.55-6.71-4.62-12-5C342.44,363.53,342.75,368.85,341.5,372.6Zm-61-3c3.63,2.37,5.39,6.61,10,8-1.5-6.11,4.79-14.16,1-16C288.74,365.17,281.38,364.15,280.5,369.6Zm88,21c.13-6.21.84-11.83,4-15-2.13-4.2-4.6-8.07-10-9C356.24,375.78,361.84,386,368.5,390.6Zm-34,1c-1.47-3.76-1.47-11.24,0-15-5.8-1.87-9.81-5.52-15-8C315.11,381.75,324.39,389.63,334.5,391.6Zm66-11c9.38,3.27,18-1.63,19-10C408.55,369.32,402.7,373.12,400.5,380.6Zm-135-3c2.6,11.07,12.46,14.87,25,16-1.17-11.17-8.9-15.76-15-22C271.94,373.37,267.15,373.91,265.5,377.6Zm159,5c2.89,2.14,8,7.3,12,5-.89-8.35-1.22-14.89-11-16C424.3,374.4,424.4,378.5,424.5,382.6Zm-354,1c3.68,7.65,4.61,18.06,10,24,4.9-8.69,3.34-23.17,1-31C77.73,378.83,74.77,381.86,70.5,383.6Zm240,18c-1.93-4,.94-8.06,0-14-6.65-2-10-7.36-16-10C290.49,392,298.11,400.57,310.5,401.6Zm-217,6c1.26-3.4,4.22-5.11,9-5,1.05-8.61,9-10.38,13-16-5.57-1.43-8.19-5.81-13-8C101.2,388.82,90.45,399.62,93.5,407.6Zm166-29a27.81,27.81,0,0,1-10,5c.13,7.88,11.7,9.61,19,7C263.87,388.22,264.38,380.71,259.5,378.6Zm95,25c-.14-6.64-1.72-9.71,0-17-5.85-1.82-9.58-5.75-16-7C335.69,395.74,345.05,399.71,354.5,403.6Zm53-17c3.29,2,5.89,4.77,6,10,5.53-2.14,9.84-5.5,15-8-5.09-.91-5.66-6.34-9-9C417.06,383.49,410.54,383.3,407.5,386.6Zm-92,15c3.26,4.09,9.3,10.68,14,10-1.67-3,.44-10.86,1-15-5.06-2.61-8.36-7-14-9C315,391.06,315.62,396.71,315.5,401.6Zm45,1a17.8,17.8,0,0,1,8-4c-2.25-5.08-7.52-7.14-11-11C355.11,392.37,357.38,400.11,360.5,402.6Zm50,3c.07-7.5-1.08-17.7-11-18C397.6,399.17,403.69,402.74,410.5,405.6Zm-145,9c-.71-6.71,1-11,1-17a57.93,57.93,0,0,1-20-7C241,406.8,253.51,412.62,265.5,414.6Zm-40-17c2.27,6.39,9,8.38,17,9-1-4.67-2.48-8.86-2-15C233.72,391.82,231.52,396.62,225.5,397.6Zm63,16c-.34-4.66-2.41-11.8,0-16-6.65,0-10-3.29-17-3C269.21,408.88,276.9,413.19,288.5,413.6Zm128-8c9.91,2.85,17-3.78,20-11C425.08,393.51,416.7,395.46,416.5,405.6Zm-82,7c3.6-2.73,8.74-3.93,14-5-3.44-4.56-8.12-7.88-13-11C333.08,399.2,332.46,408.85,334.5,412.6Zm145-2c4.89-2.17,13.76-9.69,10-14C484.51,399.61,481.38,404.48,479.5,410.6Zm-171,12c-1.31-4.69-1-11-1-17-6.18-.15-8.64-4-15-4C291.09,415.34,297.81,421,308.5,422.6Zm154-3c6.7-4.3,11.22-10.78,15-18C468.87,404,466.07,412.17,462.5,419.6Zm-24,40c11.18-5.49,20.45-12.88,35-15,.39-10.62,11.33-22.06,10-27-11.15-.21-18,11.33-28,14-14.31,3.8-23.34-10.23-36-12-6.48-.9-14.15,1.29-22,0-11.71-1.92-19.38-11.69-25-16-.1,1.57.13,3.47-2,3-39.84,10.16-71.38,28.62-97,53,8.22,4.11,12.32,12.35,19,18-.27-13.11,16.88-13.14,26-19,3.5-2.25,4.17-6.64,8-8,9.81-3.47,17.29,3.73,27,5,18.9-12.09,19,16.63,26,26,1.33-4.34,1-10.38,6-11,2.55,12.23-7.46,25.86-6,37,4.17-8.15,13.16-10.7,19-19,8.26-11.75,8.62-30.62,21-36-5.55,8.79-8.51,20.16-13,30,21.13-10.54,29.64-39,51-46C449.49,442.59,444,451.05,438.5,459.6Zm-212-32c-5.27-5.4-5.42-15.91-9-23C201.55,409.82,209.42,428.65,226.5,427.6Zm19,2c-2-6-5.48-10.52-6-18-6.46-1.21-10.12-5.21-16-7C223.31,420.45,228.14,431.29,245.5,429.6Zm197-8c3.48-6.52,11.21-8.79,13-17C448.1,406.14,440,416.71,442.5,421.6Zm6,1c6.38-2.73,16.38-12.15,13-18A107.7,107.7,0,0,0,448.5,422.6Zm-247-17c-27.21,11.89-56.33,43.29-52,78,9.08-35.25,30-58.68,55-78Zm114,18c2.05-3.61,6-5.33,10-7-2.74-4.93-8-7.32-13-10C310.12,412,312,420.89,315.5,423.6Zm-70-11c.17,12.83,5.62,20.38,21,18-.52-4.81-2.13-8.54-3-13C256,417.94,249.83,412.18,245.5,412.6Zm41,24v-19c-6.89-.44-11.37-3.3-17-5C266.61,425.4,272.36,437.56,286.5,436.6Zm-97-11c5.34,1.85,14.8,1.39,19-1a44.77,44.77,0,0,0-7-9C197.43,418.86,192.27,421,189.5,425.6Zm102,10c7.19-.81,11-5,15-9-5.68-1.65-9.88-4.79-15-7C289.21,424.39,291.37,430.23,291.5,435.6Zm-147-7c-4.46,1.23-6,5.44-10,6-10.74,1.51-19.47-6.71-29-5-4.43.79-13.7,7.88-16,13-6.73,15,1.37,40.23,8,62,22.42-9.91,10.16-45,32-55,13.7-6.3,28.84-5.1,30-22C155.09,430.23,148.71,427.44,144.5,428.6Zm81,18c-3.56-1.44-2.2-12-1-15-6.31,0-9.69-3-16-3C202.63,440.11,211.83,452.1,225.5,446.6Zm-41-15c.25,11.76,9.72,14.28,20,16,1-3.43-2.83-9.56-2-16C197.42,431.07,189.21,429.27,184.5,431.6Zm67,23c-4.39-3.44-6.71-13.75-5-20-6.39.39-10.53-1.47-16-2C224.55,447.76,240.31,459.88,251.5,454.6Zm-1-19c-2.58,11,4.33,20.93,16,21-1.59-6.07-1.72-13.61-3-20C260.09,435.59,252.51,434.83,250.5,435.6Zm20,17a54.37,54.37,0,0,0,15-11,30.05,30.05,0,0,1-16-7C266.77,440,270.2,447,270.5,452.6Zm-63,16c-1.34-5.33-3.9-9.43-3-17-7.28-.39-11.61-3.72-18-5C186.43,461,192.59,469.17,207.5,468.6Zm8,2h12c-.62-6-3.78-9.55-3-17-5.2-1.13-10.66-2-16-3C207.54,460.55,211.76,465.33,215.5,470.6Zm241-17c-37.38,14.33-64.66,50.69-88,78,36-28.71,60.41-68.93,114-80A46.55,46.55,0,0,0,456.5,453.6Zm-289,1c.2,10.8,10,12,20,13,1-4-5-8.75-5-15C177,452.75,172.55,454,167.5,454.6Zm67,17c1.88-5.12,7.12-6.88,9-12-6.51-.49-9.5-4.5-15-6C227.58,462.52,231.11,467,234.5,471.6Zm-111,19c10.69-3.85,26.42-21.76,14-33C138.57,474.34,128.1,479.53,123.5,490.6Zm214-30c3.86,4.33,1.58,14.08-2,17,5.77,4.16-.05,16.25,3,19,3.39-12.06,14.86-26.31,12-38C347.28,460.38,341.43,459.52,337.5,460.6Zm156,13c4.46-.87,5.75-4.92,7-9-3.55-2.78-8.39-4.28-14-5C488.8,464.29,492.51,467.59,493.5,473.6Zm-29-12a17.19,17.19,0,0,0,11,9c-.7-4.37,1.7-5.63,1-10C471.38,459.81,469.24,462,464.5,461.6Zm14,11c3.52,1.81,5.8,4.87,10,6,3.34-9.26-3-15.06-9-18A41.67,41.67,0,0,1,478.5,472.6Zm-243,8c6.26-8.07,16.42-12.24,25-18C244.51,460.94,239.49,470.25,235.5,480.6Zm74-12a25.23,25.23,0,0,1,4,17c6.68,3,9.29,10,13,16,5.26-13.14-1.52-27.38-4-39C316.59,463,314,466.74,309.5,468.6Zm134,3c4.72.62,5.51,5.16,11,5,1.85-2.15.68-7.32,1-11Q447.85,466.95,443.5,471.6Zm-252,15c-.64-5.36-1.23-10.77-3-15-9.37.37-14.18-3.82-22-5C169.31,478.79,174.72,488.38,191.5,486.6Zm269-9c4.2.8,6.48,3.52,11,4,1.9-10.9-5.51-12.49-12-15C460.7,469.4,460.6,473.5,460.5,477.6Zm-106,13c8.47-1.2,10.9-8.43,17-12-2-3.38-4.29-11.68-8-10C362,473.42,355.08,481.5,354.5,490.6Zm-180-4c-8.41-1.93-8.67-12-13-18C149.1,478.71,164.07,494.54,174.5,486.6Zm324-10c1.88,2.45,3.78,4.89,4,9,5.75-1.51,3.77-10.52,3-16C502.22,471,500.76,474.19,498.5,476.6Zm-306-3c1.28,10.38,9.62,13.71,23,12-3-4-7.15-6.85-8-13C202.79,473.12,195,469,192.5,473.6Zm33,14c.66-5,2.9-8.43,4-13-5,.65-12.64-1.31-16,1C215.8,481.29,219.45,485.64,225.5,487.6Zm218,0c4.44-.11,5.87,2.8,11,2,.68-10.35-7.8-11.53-15-14A48.61,48.61,0,0,1,443.5,487.6Zm-17-3c5.5-.83,6.83,2.5,12,2C439.19,474.81,429.93,478.1,426.5,484.6Zm64,1c3.25,1.42,2.68,6.65,8,6,1.71-5.46-1.33-14.58-6-13C494.64,479.84,490,482.7,490.5,485.6Zm-33,4c4.31-.69,7.35-2.65,9-6-2.67-2.33-7.3-2.7-11-4C456,483.14,457.72,485.37,457.5,489.6Zm-380,12c2.62-3.24,6.94-14.79,3-18C78.69,488.14,73.73,494.8,77.5,501.6Zm178-15c-10-3.22-17.38,4.52-17,15,13,2.27,21.13-10.77,18-18A4.7,4.7,0,0,1,255.5,486.6Zm247,21c5-3.41,12.16-15,6-23C504.14,489.25,498.2,497.61,502.5,507.6Zm-224-2c1.29-12.62-3-19.68-14-20C261.11,498.14,269.93,502.26,278.5,505.6Zm-74-4c1.49-4.51,4.51-7.49,7-11-6.48.48-10-2-15-3C197.39,494,200.8,498,204.5,501.6Zm258-5c17.14-4.38,27.2,4,31,16C503.82,488.6,470.65,479.51,462.5,496.6Zm-161,32c4.52-8.48,17-10.08,17-20,0-9.42-12.72-15.88-22-20C292.81,504.13,283.76,522.11,301.5,528.6Zm111-31c4.79-1.4,9.05,2.88,12,0-2.61-1.73.15-8.82-4-9C418.73,492.49,413.09,492.52,412.5,497.6Zm17,1c4.53-1.14,7.8,4.13,11,1-1.31-6.37-8-12.62-15-10C428.8,490.63,427.66,496.1,429.5,498.6Zm-249,7c-3.4-2.93-4.8-7.87-7-12-6.51-.49-11.87-2.12-18-3C154.66,504.11,167.16,509.59,180.5,505.6Zm-3-14c1.52,13,11.75,18,25,14-3.41-4.93-8.27-8.39-10-15C187.63,491.06,180.79,489.55,177.5,491.6Zm266,8c4.08-.59,7.14-2.19,8-6-4,.28-7.57-5-11-2C443.77,492,442.93,496.5,443.5,499.6Zm-236,17c2.59,1.08,3.72,3.62,7,4-2.78-14,3-18.72,8-27C208.62,492.09,207,506.94,207.5,516.6Zm41-12c5.34,1,5.28,7.39,9,10,2.1-5.23,9-5.67,13-9-5-2.34-8.15-6.52-11-11C257.12,499.21,252.74,501.83,248.5,504.6Zm126-9c-.22-.78-.84-1.16-2-1-5,2.69-11.4,3.93-16,7-3.58,11.45-15.36,16.31-18,28-1.13,5,2.58,10.09-1,16,7.41.3,12.92-15,18-17,0,5.36-2.13,8.53-3,13C364.17,530.6,371.17,514.93,374.5,495.6Zm-301,22c5.34-3.76,13.14-15.38,10-21C80.82,504.25,73.78,507.54,73.5,517.6Zm343-6c4.45-.78,6,1.33,10,1,1.51-10.84-8.47-10.2-16-12C411.75,505,415.13,507.3,416.5,511.6Zm14-1c3.68-.66,5-3.69,7-6-3.14-1.19-5.29-3.37-9-4C429,504.14,430.72,506.37,430.5,510.6Zm-310-3c4.72-2.22,10.35.16,12,4-1.34,3.66-2.81,7.19-4,11,11.17-2,12.05-15.34,5-21C126.4,500.83,123.13,503.9,120.5,507.6Zm31-5c.56,4.56-1.77,6.23-1,11,6.39,1.4,7.13-2.87,12-3C160.09,507.09,155,501.77,151.5,502.6Zm-73,21c6.51-2.44,12.35-15.26,10-20C86.3,511.4,80.38,515.47,78.5,523.6Zm319-10c5.05-.06,13.47,4.94,15,2-2.48-3.85-2.45-10.22-7-12C404.29,508.38,399.32,509.42,397.5,513.6Zm-145,13c3-7.47-.32-22-13-20C236.79,517,244,524.32,252.5,526.6Zm-54-17c-3.46,1.54-9.18,2.73-13,1,1.48,11.55,10,16.67,23,14C204.77,520,202.61,513.82,198.5,509.6Zm-10,17c-1.9-7.2-9.18-17.41-23-16C166.5,523.64,175.29,531.3,188.5,526.6Zm71-1c11.14,1.14,18.29-7,17-15C266.3,510.5,256.35,515.64,259.5,525.6Zm139,44c17.28-14.06,39.84-22.83,41-53,1.3-1.27,8.32-5.54,4-6-31.88,14.79-48.46,50.2-66,76,15.47-9.34,41.76-1.42,59-12,10.12-6.21,17-14.73,18-30-10.31,17.69-40.82,15.18-57,27C397.5,570.59,398.31,570.41,398.5,569.6Zm64-44c4.77,4,7.14,8.19,5,17a13.87,13.87,0,0,0,21,7c14.53,16,33.76-11.83,14-19,4.16,6,2.32,17.47-8,15-4-3.53-6.48-6.11-14-4-2.73-1.94-5.17-4.17-6-8-.54-3.54,3.54-2.46,3-6-2.72-1.61-6.28-2.38-6-7,.23-5.77,8.21-3.79,11-7C473.26,508.13,460.48,513.45,462.5,525.6Zm-379,3c7.27-1.41,12.44-10.21,12-16C91.86,518.29,85.92,521.69,83.5,528.6Zm333-5c3.68-.66,5-3.69,7-6-2.07-1.93-5.56-2.44-8-4C413.59,516,417.19,519.31,416.5,523.6Zm-255-7c-3.5,2.51-9.08,2.92-13,5,2.26,9.6,12.43,13.07,23,9C167.87,526.22,166.07,520,161.5,516.6Zm236,10c5.09-.09,7.91,2.09,13,2,1.23-9.25-10-11.32-16-10C397.22,519.54,396.79,523.64,397.5,526.6Zm-16,1c5-.68,10.1,3.85,14,1-2.2-2.46-4.22-5.12-5-9C386.16,520.93,384.3,524.73,381.5,527.6Zm-119,67c24.19-3.48,31.53-23.8,47-36-4.62,9.38-13.48,19.85-16,28,14.64-7,27.93-15.41,38-27-1.23-5.44-7-6.3-9-11,.13-10.2,4.38-16.28,6-25-13.55,6.79-20.4,20.27-36,25-13.26-11-39-12.84-63-10-6.14,22.35,7,41.24,16,55,16.52-7.48,29.22-18.78,42-30C280.6,575.36,270,583.45,262.5,594.6Zm-64-63c2.55,5.85,10.7,8.92,19,6,2-2.69-3.21-4.93-2-10C210.27,529.37,202.3,528.4,198.5,531.6Zm-21,3c4.36,8,15.42,12.82,24,6C197.36,532,186.92,528,177.5,534.6Zm194,6a40.71,40.71,0,0,0,13,2c-1.5-4.16-2.84-8.5-6-11C376.1,534.53,373,536.79,371.5,540.6Zm18,2c4-.69,5.71,1,9,1,.41-5.07-2-7.31-4-10-4.36,1-8.29-3.64-11-1C387.05,534.37,386.5,540.26,389.5,542.6Zm14-2c1-3.32,5.54-3.13,5-8-3.93,1.2-7.52-3.06-10,0C402,533.46,400.69,539.07,403.5,540.6Zm-250-2c3.22,10.11,22.55,15.61,31,6-6.3,1.69-7.87-8.36-14-10C167.33,538.43,156.35,534.45,153.5,538.6Zm51,5c-2.4,2.26-5.61,3.72-7,7,5.12,6.32,16.67,5.74,23,1C221.24,537.11,213.22,545.92,204.5,543.6Zm154,9a42.81,42.81,0,0,0,14,5c-.54-6.12-4.83-8.5-7-13C363.78,547.87,360.22,549.32,358.5,552.6Zm11-6c6.49,3.84,6.73,13.94,18,13C389.39,548.44,376,542.83,369.5,546.6Zm20,9a11.3,11.3,0,0,0,6-7c-2.48-1.18-5.88-1.45-9-2C387.45,549.64,390.21,550.88,389.5,555.6Zm-216-1c2.6,11.55,21.66,10.54,28,3C191.78,550.65,186.06,548.95,173.5,554.6Zm36,51c56.88,14.39,122.77-11.78,140-53-.11-1.22-.3-2.37-2-2C317.12,584,273.15,608.78,209.5,605.6Zm-28-39c-5.82-3.51-12.21-6.45-14-14-5,.7-7-1.7-12-1C158.64,561.46,167.64,570.78,181.5,566.6Zm38,34c-6-5.76-14.37-4.69-21-7-20.15-7-35.29-21.83-47-37-.06-.61-.15-1.18-1-1C158.84,585.26,182.74,599.36,219.5,600.6Zm-12-41c1.05,7.19,11.14,6.38,18,5C226.05,549.62,217,560.32,207.5,559.6Zm165,16c2-12.34-4.95-15.72-13-18C360.42,567,364.4,573.37,372.5,575.6Zm-25-8c4.12,1.21,7.26,3.41,12,4-1.07-5.26-2.29-10.37-6-13C352.62,562.71,348.12,563.22,347.5,567.6Zm30,3c3.31-1,5.9-2.77,6-7-4.09,1-5.86-5.4-9-2C376.79,563.3,376.87,567.23,377.5,570.6Zm-188-2c6.06,6.77,20,7.54,27,1C207,565.78,198.6,561.09,189.5,568.6Zm25,7c.43,5.87,10.07,5.71,15,4,.54-5.21-1.2-8.13-3-11C222.92,571.35,219.61,574.37,214.5,575.6Zm129-6c-1.5,2.83-4.41,4.26-5,8,3.92.41,3.08,5.59,7,6C346.76,580.54,348.26,569.84,343.5,569.6Zm-171,3c4.41,8.27,15.64,10.27,25,6A21.6,21.6,0,0,0,172.5,572.6Zm178,13c4.2,1.13,5.93,4.73,10,6,1.92-11.92-4-16-11-19C350.94,575.82,350.45,581,350.5,585.6Zm14,2c3.42-1.58,5.24-4.76,7-8-4.13-.87-5.87-4.13-10-5C362.37,579.06,364.53,582.24,364.5,587.6Zm-171-3c4.85,8.27,20,4.33,24-2C207.62,577.32,202.28,580,193.5,584.6Zm134,5c7.24,1.43,12.25,5.08,17,9,.4-9.73-3.68-15-9-19C334.39,584.49,328.09,584.18,327.5,589.6Zm-113,3c5.22,3.33,16.84,2.57,21-1,.23-4.23-1.57-6.43-3-9C227.78,589.33,217.22,584,214.5,592.6Zm137,11c1.29-4,5.16-5.51,6-10-4.57-.76-6.66-4-10-6C349.59,593.45,348.58,600.87,351.5,603.6Zm-38-5c6.38,3.29,11,8.3,15,14,2.14-8.88.06-16.66-5-21C321.65,595.41,315.36,594.78,313.5,598.6Zm20,17c1.29-4.38,7.46-3.87,10-7-1.26-6.41-5.92-9.41-11-12C335,601.24,330.15,610.3,333.5,615.6Zm-36-10a176.33,176.33,0,0,1,14,14c3-7.16,1.89-15.63-3-20C306.94,603.7,301.13,603.56,297.5,605.6Zm18,19c1.86-3.81,9.07-2.26,10-7-1.92-4.42-3.7-9-8-11C317.86,613,313.21,619.61,315.5,624.6Zm-27-17c-1.38,3-6.36,2.3-10,3-3.34,10.78,2.64,16.15,8,21C290.77,627.59,294.8,612.92,288.5,607.6Zm5,24c4.22-2.78,13.15-.85,15-6-2.93-6.4-6.4-12.26-13-15C299.52,618.2,292.19,626.86,293.5,631.6Zm-35-18c1.84,6.33-.13,15.34,1,20,5.66-5.67,13.07-9.59,13-21C267,612.07,263.07,613.17,258.5,613.6Zm-51,3c3.91,8.08,22.9,5.55,19-2C222.47,617.57,211.53,613.62,207.5,616.6Zm26-1c-2.62,3.38-5.66,6.34-8,10,10.62,4.72,21.66-6,19-11C243.63,618.28,236,616.34,233.5,615.6Zm4,17c12.12,5.67,22.48-6.58,15-17C250.15,623.92,241.23,625.66,237.5,632.6Zm25,3c6.9-.1,14.67.67,19-2-3.74-2.93-5-8.32-10-10C270.57,629.67,264.93,631,262.5,635.6Z"/></svg>